<svg width="156" height="150" fill="none" xmlns="http://www.w3.org/2000/svg"><path d="M103.503 125.446c-1.175.126-2.391-.252-3.566.251-1.09-1.3-2.601-1.3-4.153-1.3H13.677c-2.35 0-4.615-.252-6.713-1.385-3.608-1.93-5.538-4.908-5.538-9.02-.041-23.663 0-47.283 0-70.946 0-2.475.294-2.77 3.021-2.77H123.18c3.398 0 3.524.127 3.524 3.525v35.536c0 1.51.084 2.937 1.301 4.028-.378 1.09-.126 2.181-.168 3.272-.126.168-.293.336-.503.378-3.273.587-6.084 2.307-8.937 3.776-4.111 2.097-8.349 3.901-12.46 6.041-2.853 1.51-4.825 3.776-5.329 6.965-.293 1.846-.209 3.776 0 5.664.504 4.909 1.343 9.775 2.937 14.474.168.504.42 1.007-.042 1.511z" fill="#FFE3AB"/><path d="M127.837 40.655V43.8c-.419.504-1.007.504-1.594.504a190.66 190.66 0 01-6.923 0c-1.636-.042-2.014-.42-2.055-2.098-.084-1.972-.001-3.986-.042-5.957-.084-4.867-2.979-7.846-7.846-7.93-3.776-.084-7.552 0-11.328 0H20.18c-1.384 0-2.727 0-4.07.378-2.978.797-5.118 3.482-5.202 6.545-.042 2.307.042 4.615-.042 6.922-.042 1.763-.42 2.14-2.14 2.182-2.349.042-4.698.042-7.09 0-.587 0-1.175 0-1.594-.504 0-1.048-.042-2.097-.042-3.146 1.3-1.427 1.426-3.105 1.426-4.95-.042-9.315.126-18.67-.084-27.985C1.26 2.77 5.37-.04 9.02 0c11.286.042 22.53 0 33.816.042 4.825 0 7.594 2.853 7.971 7.888.378 4.657 3.567 8.223 8.056 8.978.881.168 1.762.126 2.685.126h55.507c.713 0 1.468 0 2.181.042 4.364.252 7.3 3.273 7.342 7.636.042 3.734.042 7.426 0 11.16.084 1.636.042 3.315 1.259 4.783z" fill="#FFE3AB"/><path d="M103.503 125.446c-1.972-6.168-3.23-12.419-3.482-18.922-.21-4.699 1.762-8.014 5.999-10.111l16.74-8.307c1.595-.797 3.273-1.343 5.077-1.427 1.846.084 3.566.63 5.244 1.469 5.413 2.727 10.867 5.412 16.321 8.097 4.993 2.475 6.755 6.041 6.293 11.622-.629 7.258-1.888 14.306-4.908 20.977-3.651 8.181-9.273 14.6-16.909 19.299-4.027 2.476-7.929 2.476-11.957 0-8.265-5.076-14.138-12.167-17.747-21.145-.209-.503-.461-1.049-.671-1.552zM33.48 113.824H17.285c-3.524 0-5.58-2.014-5.58-5.538V89.281c0-3.399 2.098-5.539 5.455-5.539a4249.72 4249.72 0 0132.725 0c3.524 0 5.538 2.056 5.538 5.58v19.006c0 3.524-2.014 5.496-5.58 5.496H33.48z" fill="#4B688B"/><path d="M24.344 24.386c.63 0 1.214-.052 1.843-.052h86.104c4.316 0 5.89 1.754 5.89 6.705 0 2.424-.045 4.9.045 7.324.045 1.237-.36 1.65-1.349 1.444H23.894c-.404 0-.764-.052-1.169-.052-.09-.103-.18-.206-.18-.31-.494-4.228-.584-8.51.09-12.739.09-1.031.764-1.908 1.709-2.32z" fill="#FEFEFE"/><path d="M24.25 24.437c-1.28 1.696-1.764 3.7-1.676 5.962.132 3.136.044 6.22.044 9.355-3.66 0-7.363 0-11.023.103-.97 0-1.19-.41-1.19-1.49.043-2.827-.045-5.654.044-8.482.044-3.34 1.94-5.551 4.761-5.551 2.999 0 6.041.052 9.04.103z" fill="#D2E9F7"/><path d="M130.69 90.79c6.209 3.063 12.419 6.084 18.544 9.189 1.93 1.007 3.147 2.811 3.105 4.993-.336 14.097-4.028 26.893-15.062 36.626-1.93 1.679-3.986 3.189-6.335 4.322-.63.293-1.091-.126-1.553-.42-6.251-4.363-10.908-10.069-13.971-16.992-2.853-6.419-4.363-13.173-4.741-20.222-.041-1.091-.377-2.14-.209-3.273.461-3.44 2.181-5.873 5.37-7.384 4.195-2.013 8.349-4.153 12.503-6.209.713-.42 1.426-.881 2.349-.63z" fill="#FEFEFE"/><path d="M130.69 90.79c-5.538 2.476-10.908 5.371-16.321 8.056-.209.126-.419.336-.587.504-2.391 2.223-3.105 4.908-2.769 8.181.378 3.902.797 7.762 1.72 11.58 2.098 9.02 6.294 16.907 13.258 23.159 1.552 1.384 3.147 2.727 5.035 3.65-2.392 1.384-4.741 1.007-6.965-.378-6.503-3.902-11.496-9.188-14.936-15.943-3.314-6.545-4.95-13.509-5.496-20.809-.084-1.007-.252-1.972-.252-2.979 0-2.769 1.175-4.867 3.65-6.126 6-3.02 12-6 17.999-8.936 1.804-.923 3.734-.965 5.664.042z" fill="#D2E9F7"/><path d="M33.648 87.057h16.027c1.888 0 2.475.503 2.475 2.391.042 6.168.042 12.377 0 18.544 0 1.93-.63 2.56-2.601 2.56-10.699.042-21.397.042-32.096 0-1.888 0-2.391-.588-2.391-2.476V89.364c0-1.846.461-2.307 2.35-2.307h16.236z" fill="#EE8F70"/><path d="M135.011 116.887c-.125 2.307-1.468 4.531-4.111 5.706-1.133.503-1.469 1.091-1.343 2.223.042.546 0 1.175-.084 1.721-.168.881-.797 1.384-1.678 1.3-.881-.084-1.636-.671-1.51-1.51.377-2.35-.713-3.357-2.643-4.489-2.895-1.679-3.734-5.581-2.35-8.601 1.427-3.189 4.867-4.867 8.307-4.112 3.147.713 5.454 3.734 5.412 7.762z" fill="#4B688C"/><path d="M33.522 95.532c-3.44 0-6.923-.042-10.363 0-1.3 0-2.265-.378-2.265-1.762 0-1.343 1.132-1.636 2.265-1.636h20.726c1.175 0 2.35.251 2.35 1.72 0 1.426-1.091 1.678-2.35 1.678H33.522zm-5.118 9.775c-1.846 0-3.65-.042-5.497 0-1.132 0-1.887-.503-1.971-1.594-.084-1.175.755-1.762 1.762-1.762a535.92 535.92 0 0111.621 0c1.05 0 2.014.503 1.888 1.804-.126 1.175-.923 1.51-2.014 1.51-1.93.042-3.86.042-5.79.042z" fill="#4C688B"/><path d="M127.837 112.23c2.056 0 3.86 1.762 3.902 3.776.042 2.182-1.804 4.07-3.944 4.028-2.014-.042-3.776-1.804-3.776-3.86-.042-2.098 1.762-3.944 3.818-3.944z" fill="#EE8F70"/></svg>