<svg width="146" height="146" fill="none" xmlns="http://www.w3.org/2000/svg"><path d="M101.846 146H4.162c-3.265-.797-4.138-1.899-4.138-5.392V18.906c0-.456-.114-.95.152-1.405 1.215-.342 2.43-.152 3.683-.19 2.543-.038 5.125 0 7.669 0 3.986-.038 5.732-1.785 5.77-5.734.038-3.114 0-6.265 0-9.379 0-.645-.038-1.329.152-1.975.418-.341.911-.19 1.367-.19h81.663c3.531 0 5.429 1.747 5.77 5.279.038.57.038 1.139.038 1.709v68.882c0 .38.038.76-.038 1.139.152.987-.455 1.595-1.063 2.202L93.115 91.32l-20.312 20.315c-.57.569-1.177 1.101-1.518 1.86-1.557 3.304-2.582 6.798-3.91 10.177a51.082 51.082 0 00-1.254 3.38c-.227.721-.569 1.405-1.366 1.671-.873.227-1.785.151-2.696.151H17.678c-.645 0-1.329 0-1.974.038-1.443.114-2.392.95-2.354 2.127.038 1.025.911 1.784 2.278 1.898.607.038 1.215.038 1.86.038h46.393c.76 0 1.519.152 2.278-.038 2.924.304 5.353-1.215 7.935-2.05 3.607-1.329 7.251-2.582 10.782-4.139.684-.342 1.215-.911 1.747-1.443l17.274-17.278c.417-.417.797-.835 1.252-1.139.494-.341.874-.266 1.063.342.19.646.152 1.329.152 1.974v30.227c0 .379 0 .759-.038 1.139-.189 3.152-1.48 4.709-4.48 5.43z" fill="#EBEFF0"/><path d="M145.962 64.853c-1.481 3.835-4.784 6.151-7.517 8.923-.494 0-.759-.342-1.063-.607-4.252-3.95-8.352-8.013-12.415-12.152-.341-.341-.835-.683-.645-1.329 1.822-2.088 3.796-4.1 5.884-5.923 2.43-2.127 6.227-2.317 8.846-.418 2.202 1.595 4.063 3.57 5.695 5.696.57.76.835 1.747 1.253 2.62-.038 1.101-.038 2.126-.038 3.19z" fill="#FE5364"/><path d="M63.995 62.84c-1.025-1.291-2.05-2.62-3.075-3.911-.266-.342-.455-.76-.987-.722-1.367-1.139-2.24-2.658-3.34-4.025-3.608-4.443-7.1-8.961-10.669-13.442-.304-.38-.835-.721-.57-1.329-1.328-1.747-2.657-3.531-3.986-5.278-.152-.684.418-.912.797-1.215 5.885-4.747 11.807-9.531 17.73-14.24.38-.304.797-.684 1.405-.532a8244.579 8244.579 0 0122.513 28.518c.152.76-.493 1.063-.95 1.443a2118.95 2118.95 0 01-17.957 14.467c-.19.228-.455.608-.91.266z" fill="#A46A43"/><path d="M106.098 77.687c3.303-3.265 6.606-6.569 9.909-9.835l1.139-1.025c.456.038.759.342 1.063.646 1.784 1.746 3.531 3.531 5.277 5.278.342.342.684.683.722 1.177-.076.722-.646 1.14-1.101 1.595l-43.698 43.706c-.38.38-.684.798-1.215.95-.493.038-.797-.228-1.101-.532a386.93 386.93 0 01-5.58-5.582c-.229-.228-.418-.494-.456-.873.038-.684.645-1.026 1.063-1.443a27397.92 27397.92 0 0033.219-33.264c.304-.228.532-.532.759-.798z" fill="#3B96D2"/><path d="M78.194 120.141c2.468-2.81 5.24-5.355 7.86-8.013 12.338-12.379 24.714-24.72 37.091-37.099.342-.342.607-.721.911-1.063.493-.152.797.19 1.101.456 1.86 1.822 3.721 3.645 5.543 5.506.304.303.607.607.493 1.1l-17.312 17.43a1654.502 1654.502 0 01-8.086 8.164c-5.581 5.544-11.162 11.126-16.743 16.632-1.29 1.291-2.43 2.772-4.024 3.76-.19-.076 0 .076-.152 0-2.582-1.823-4.746-4.14-6.682-6.608-.076-.076-.038-.19 0-.265z" fill="#2980B9"/><path d="M47.974 60.068c-2.05 1.102-3.683 2.772-5.505 4.215-6.264 5.013-12.49 10.063-18.755 15.075-2.088 1.671-4.67 1.71-6.53.19-2.62-2.126-2.62-5.924.114-8.126 7.67-6.227 15.338-12.379 23.045-18.606.38-.304.835-.494.95-1.026.34-.038.53.19.72.38 1.899 2.468 3.911 4.86 5.885 7.253.114.19.266.38.076.645z" fill="#A46A43"/><path d="M44.026 95.724h-27.45c-.53 0-1.062 0-1.556-.037-1.329-.152-2.278-1.216-2.24-2.469.038-1.253 1.025-2.316 2.354-2.43.418-.038.835 0 1.29 0h55.62c2.353 0 3.606.836 3.606 2.468 0 1.633-1.177 2.507-3.568 2.507-9.378-.038-18.717-.039-28.056-.039z" fill="#547580"/><path d="M63.995 62.84c5.543-4.48 11.124-8.962 16.667-13.442 1.1-.874 2.354-1.595 3.227-2.734 2.126-.874 3.645-.076 4.746 1.784.151.228.341.456.531.684 2.164 2.734 2.088 3.57-.607 5.696-6.113 4.86-12.187 9.759-18.261 14.657-2.278 1.823-3.341 1.709-5.164-.645-.417-.532-.835-1.026-1.215-1.557-1.518-1.899-1.48-2.658.076-4.443zm-2.657-44.693c-4.366 3.493-8.77 6.987-13.136 10.48-2.278 1.823-4.518 3.683-6.796 5.506-2.278.95-2.961.76-4.48-1.177-.57-.76-1.177-1.481-1.746-2.24-.95-1.292-.798-2.659.417-3.646 6.682-5.392 13.364-10.746 20.046-16.1 1.443-1.14 2.771-.95 3.948.493.532.646 1.063 1.33 1.595 2.013 1.519 1.975 1.556 2.696.152 4.67z" fill="#CA8252"/><path d="M66.501 133.165c-.455.342-.987.266-1.518.266H15.78c-1.29 0-2.354-.304-2.923-1.557-.684-1.443.265-3.152 1.898-3.455.493-.114 1.025-.076 1.556-.076h48.785c.342.38.19.759.076 1.139-.265.532-.341 1.063-.076 1.595.114.987 1.215 1.253 1.405 2.088zm-28.664-29.884h21.64c.456 0 .95-.038 1.405.038 1.29.228 2.05 1.101 2.088 2.354.038 1.177-.531 2.127-1.746 2.468-.57.152-1.215.19-1.822.19H15.855c-1.936-.038-3.113-1.063-3.113-2.582s1.215-2.468 3.19-2.468h21.905z" fill="#547580"/><path d="M47.974 60.068a99.92 99.92 0 01-6.72-8.278c-.493-.607-1.063-1.215-1.518-1.898-1.405-2.089-1.177-4.823.683-6.494 1.556-1.443 3.303-2.658 4.973-3.987 3.797 4.823 7.631 9.645 11.428 14.506 1.1 1.405 2.392 2.658 3.113 4.328-1.101.95-2.164 1.937-3.265 2.886-3.151 2.772-6.226 2.393-8.694-1.063z" fill="#805333"/><path d="M34.155 115.85H51.96c.456 0 .95-.038 1.405.038 1.215.303 2.05 1.025 2.088 2.354.038 1.291-.607 2.164-1.898 2.506-.532.152-1.14.152-1.709.152H15.665c-1.822-.076-2.96-1.063-2.96-2.582.037-1.519 1.176-2.468 3.037-2.468 6.15-.038 12.3 0 18.413 0z" fill="#547580"/><path d="M.442 17.577A906.184 906.184 0 0117.526.489c.418.38.266.874.266 1.33v10.366c0 3.531-2.126 5.658-5.657 5.658H1.771c-.456 0-.95.152-1.33-.266z" fill="#D0D3D0"/><path d="M78.194 120.141c2.278 2.316 4.556 4.594 6.796 6.911-2.392 1.329-5.05 2.012-7.555 3.037-1.025.418-2.126.76-3.151 1.139-.418-.265-.418-.683-.494-1.101-.531-3.303-2.316-5.278-5.619-6.113-.417-.114-.873-.076-1.1-.532 1.1-3 2.163-5.999 3.302-8.999.152-.418.304-.912.722-1.215l7.1 6.873z" fill="#FCD6AC"/><path d="M67.07 123.444c4.442.38 7.138 3.304 7.214 7.784-1.747.684-3.531 1.33-5.278 2.013-.835.304-1.67.304-2.467-.038-.873-.38-1.595-.949-1.709-1.975a2.518 2.518 0 010-1.67c.19-.342.342-.722.304-1.139.646-1.671 1.291-3.342 1.936-4.975z" fill="#3F5C6C"/><path d="M131.155 81.03c-2.316-2.431-4.631-4.823-7.137-7.102l-5.847-5.962c-.341-.38-.683-.759-1.025-1.177 2.278-2.468 4.632-4.86 7.1-7.1l14.161 14.05c-2.278 2.543-4.746 4.974-7.252 7.29z" fill="#94A4A4"/><path d="M64.793 129.52v1.709c-.418-.608-.418-1.178 0-1.709z" fill="#718081"/></svg>