<svg width="169" height="146" fill="none" xmlns="http://www.w3.org/2000/svg"><path d="M119.237 29.754h47.959c.616 0 1.188.044 1.804.044V146l-18.216-18.355c-2.552-2.553-5.104-5.105-7.612-7.746-.704-.748-1.408-1.013-2.42-1.013-9.899.044-19.755.044-29.655 0-.616 0-1.188-.044-1.804-.044-.616-.616-.528-1.408-.572-2.156V91.2c0-.704-.044-1.452.44-2.068.66-.529 1.452-.485 2.2-.485a112.77 112.77 0 015.456 0c1.364.044 1.892-.572 1.848-1.848-.044-.616 0-1.189 0-1.805v-52.29c0-1.013-.308-2.113.572-2.95z" fill="#EF3800"/><path d="M49.543 89.264c-7.304 0-14.608-.044-21.956-.088-.88 0-1.276.572-1.76 1.057-8.095 8.099-16.191 16.153-24.243 24.252-.396.44-.792.881-1.54 1.189v-1.541C.044 76.72.044 39.306 0 1.937 0 .44.352.044 1.892.044c18.744.044 37.487.044 56.23.044.529 0 1.1.044 1.629.044.44.484.483 1.1.483 1.673.044 5.502.044 11.048 0 16.55 0 .44-.044.88-.22 1.276-.088.22-.22.352-.396.484-.88.44-1.847.309-2.771.309H32.823c-2.508 0-2.64.088-2.596 2.552.044 1.981-.352 3.962.308 5.855.616.66 1.408.44 2.156.484h24.64c.792 0 1.672-.132 2.42.308.264.22.396.528.396.88.088 2.993.352 5.986-.133 8.935-.088.22-.22.352-.44.484-.88.397-1.847.265-2.771.265H23.408c-.66 0-1.32 0-1.98.044-.617.088-1.056.396-1.056 1.012 0 2.465-.396 4.93.22 7.35.616.66 1.452.485 2.155.485h34.32c.88 0 1.76-.176 2.596.308.264.22.396.528.44.88.088 2.993.308 5.986-.132 8.936-.088.22-.22.352-.44.484-.836.396-1.716.264-2.596.264h-24.2c-2.508 0-2.64.088-2.552 2.597.044 1.936-.352 3.961.308 5.854.616.66 1.452.44 2.156.44h24.727c.792 0 1.673-.176 2.377.396.484.66.44 1.453.44 2.2v15.45c0 .749.043 1.54-.397 2.245-.44.396-1.011.484-1.54.484-2.42.044-4.84.044-7.26 0-.483.088-1.011.044-1.451-.352z" fill="#00A9DE"/><path d="M59.794 19.763V.133c.485-.045.969-.089 1.497-.089 18.743 0 37.487 0 56.23-.044 1.364 0 1.716.308 1.716 1.717-.044 9.33 0 18.706 0 28.038 0 4.313-.044 8.67-.044 12.984 0 14.922-.044 29.843.044 44.808 0 1.365-.308 1.761-1.716 1.717-2.728-.088-5.5 0-8.228 0-.66.528-1.452.484-2.2.484h-45.01c-.792 0-1.672.132-2.288-.616V69.457c.747-.792 1.715-.572 2.64-.572h23.891c2.552 0 2.596-.044 2.596-2.553 0-1.497-.044-2.993 0-4.446.044-1.364-.528-1.849-1.848-1.849-3.916.044-7.788 0-11.704 0h-13.2c-.835 0-1.803.22-2.42-.66V49.65c.793-.837 1.849-.572 2.817-.572H95.39c.528 0 1.1-.044 1.628 0 1.232.044 1.804-.44 1.804-1.717-.044-1.805-.044-3.61 0-5.458 0-1.188-.528-1.717-1.716-1.673H62.523c-.925 0-2.025.309-2.729-.66v-9.727c.748-.793 1.717-.573 2.64-.573h23.892c2.552 0 2.596-.044 2.596-2.552 0-1.497-.044-2.994 0-4.446.044-1.365-.528-1.849-1.848-1.849-3.916.044-7.788 0-11.704 0h-13.2c-.835-.044-1.76.176-2.376-.66z" fill="#00799E"/><path d="M59.75 89.132c2.025.044 4.048.088 6.073.088h41.623c.616 0 1.188.044 1.804.044v29.578c-8.536 0-17.028.044-25.52.044-10.824 0-21.648-.044-32.471.044-1.496 0-1.804-.44-1.76-1.848.044-9.288.044-18.575.044-27.862 3.388 0 6.82-.044 10.208-.088z" fill="#FE7037"/><path d="M59.795 39.57c5.236.044 10.428.088 15.663.088 7.48 0 14.96.044 22.396-.044 1.232 0 1.628.309 1.584 1.54a90.478 90.478 0 000 6.911c.044 1.233-.308 1.54-1.54 1.54-12.1-.043-24.155-.043-36.255-.043-.616 0-1.188.044-1.804.044-12.716 0-25.388-.044-38.103-.088-.616 0-1.32.352-1.804-.308.836-.748 1.892-.528 2.816-.528h33.57c2.949 0 2.949 0 2.949-2.861v-4.138c0-.704-.044-1.453.528-2.025-.044 0-.044-.044 0-.088z" fill="#B3D1D6"/><path d="M59.75 39.746c0 2.685-.043 5.37.045 8.1.044 1.144-.352 1.496-1.496 1.496-12.804-.044-25.608-.044-38.411-.044 0-2.73 0-5.502-.088-8.231-.044-1.1.308-1.365 1.364-1.365 7.347.044 14.74 0 22.087.044 5.544-.088 11.044-.044 16.5 0z" fill="#E0EAEF"/><path d="M59.794 19.763c8.712.044 17.468.044 26.18.088 3.52 0 3.52 0 3.52 3.521 0 1.629-.088 3.302.044 4.93.088 1.233-.308 1.54-1.54 1.54-8.712-.043-17.468-.043-26.18-.043-.66 0-1.32.044-1.98.044-9.46 0-18.92-.044-28.335-.088-.528 0-1.232.352-1.628-.309.792-.704 1.76-.528 2.684-.528h24.2c2.551 0 2.595-.044 2.595-2.553V21.92c0-.705-.044-1.453.528-2.025-.132-.044-.132-.088-.088-.132zm0 39.614c8.712.044 17.468.044 26.18.088 3.52 0 3.52 0 3.52 3.521 0 1.629-.088 3.301.044 4.93.088 1.233-.308 1.54-1.54 1.54-8.712-.043-17.468-.043-26.18-.043-.66 0-1.32.044-1.98.044-9.46 0-18.92-.044-28.335-.088-.528 0-1.232.352-1.628-.309.792-.704 1.76-.528 2.684-.528h24.2c2.551 0 2.595-.044 2.595-2.553v-4.445c0-.704-.044-1.453.528-2.025-.132-.044-.132-.088-.088-.132z" fill="#B3D1D6"/><path d="M59.75 19.939c0 2.685-.044 5.37.044 8.099.044 1.144-.352 1.496-1.496 1.496-9.503-.044-19.007-.044-28.51-.044 0-2.86-.001-5.722-.045-8.583 0-.792.264-1.056 1.012-1.056 9.68.044 19.36.044 28.995.088zm0 39.614c0 2.685-.044 5.37.044 8.1.044 1.144-.352 1.496-1.496 1.496-9.503-.044-19.007-.044-28.51-.044 0-2.861-.001-5.722-.045-8.583 0-.792.264-1.057 1.012-1.057 9.68.044 19.36.044 28.995.088z" fill="#E0EAEF"/></svg>