<svg width="152" height="157" fill="none" xmlns="http://www.w3.org/2000/svg"><path d="M41.21 39.977c-.297-6.11-.483-12.22 1.044-18.219C45.27 9.612 53.244 2.422 65.648.596c.82-.112 1.714 0 2.422-.596h2.757c1.043.335 2.123.075 3.166.15h3.8c1.266-.113 2.496.185 3.762-.15h2.459c1.714.782 3.613.708 5.439 1.155 11.474 2.757 18.142 10.134 20.638 21.497 1.155 5.216 1.155 10.506.894 15.834-.037.56-.037 1.118-.037 1.677.447 1.527-.038 3.055-.261 4.545-.485 3.689-1.304 7.303-2.273 10.916-.149.56-.26 1.08-.782 1.453-.633 0-.633-.521-.745-.931.037-4.396-.037-8.793-1.192-13.077a60.46 60.46 0 00-1.378-4.397 14.29 14.29 0 01-.671-7.078c.224-1.528.261-3.055-.224-4.546-.67-2.086-2.011-2.757-3.986-1.9-6.295 2.757-12.926 4.061-19.743 4.471-9.164.559-17.993-.82-26.487-4.284-2.682-1.118-4.06-.373-4.657 2.421-.26 1.155-.26 2.31-.111 3.503.298 2.347.41 4.694-.447 6.966-2.198 5.663-2.943 11.55-2.757 17.586-.112.521 0 1.117-.708 1.304-.67-.522-.782-1.304-.968-2.012-1.155-4.36-1.975-8.793-2.534-13.264-.111-.67 0-1.266.187-1.862z" fill="#40596B"/><path d="M77.83.299h-3.986c-.112-.075-.149-.112-.112-.187.038-.075.075-.112.112-.112h3.986c.112.075.15.15.112.187-.037.074-.075.112-.112.112z" fill="#607483"/><path d="M77.83.299V0h3.688c-1.192.635-2.459.187-3.688.299z" fill="#586E7D"/><path d="M73.844 0v.299C72.838.187 71.758.635 70.789 0h3.055z" fill="#566C7C"/><path d="M44.787 55.773c-.224-5.96.447-11.81 2.645-17.399.894-2.31.82-4.694.521-7.078-.186-1.602-.149-3.167.373-4.695.708-2.123 2.272-2.868 4.284-1.937 7.04 3.204 14.528 4.508 22.128 4.694 8.419.187 16.652-1.155 24.438-4.582 2.496-1.08 4.097-.224 4.768 2.422.373 1.564.298 3.129.112 4.731-.298 2.31-.149 4.546.707 6.78 2.161 5.627 2.832 11.439 2.496 17.437-.335.67.187 1.267.149 1.937-.037.485.298.82.522 1.155-.745.261-1.192.634-1.416 1.49-1.75 6.67-4.768 12.742-8.642 18.405-.335.522-.708.97-.708 1.64.037 3.427.037 6.818.075 10.245-.15.15-.299.15-.448.038-.447-.634-.297-1.379-.297-2.087v-6.11c0-.596-.075-1.23.41-1.714-2.832 3.54-5.551 7.154-9.09 10.022-2.683 2.161-5.849 3.13-9.276 3.13-3.241 0-6.557.335-9.723-.708-4.396-1.453-7.264-4.806-10.096-8.16-1.154-1.34-2.272-2.719-3.501-4.246 0-.038-.075.335.074.149.037-.075.075-.038.15.074.334.559.223 1.192.223 1.788v6.26c0 .558.037 1.117-.298 1.639-.15.112-.298.112-.41-.037.037-3.428.037-6.818.074-10.246 0-.596-.223-1.043-.559-1.528-3.948-5.625-6.854-11.773-8.754-18.367-.223-.857-.596-1.453-1.453-1.64.261-.372.56-.707.522-1.192-.112-.856.372-1.564 0-2.31z" fill="#FFE3AB"/><path d="M38.007 156.888c-12.293 0-24.624 0-36.917.075-1.118 0-1.08-.522-1.08-1.304 0-8.234-.038-16.431.036-24.664.075-12.481 7.414-22.801 19.26-27.086 11.623-4.21 23.283-8.383 34.943-12.593.149-.074.26-.074.372.038.038.745-.558 1.043-1.043 1.415-7.823 6.52-15.72 13.003-23.58 19.486-1.528 1.266-1.49 1.415.335 2.235 4.582 2.012 9.164 4.024 13.709 6.11 1.75.783 1.825 1.639.372 2.943-5.327 4.769-10.132 10.06-15.273 15.015-.894.857-.633 1.565-.112 2.422 2.794 4.806 5.7 9.537 8.456 14.381.298.447.708.894.522 1.527zM97.76 91.317c11.474 4.135 22.91 8.233 34.384 12.369 10.617 3.837 17.174 11.214 19.409 22.316.335 1.64.447 3.316.447 5.03v24.664c0 .783.037 1.304-1.08 1.304-12.294-.074-24.624-.074-36.918-.074-.074-1.267.82-2.161 1.416-3.13 2.496-4.21 4.917-8.457 7.488-12.63.708-1.155.633-1.937-.373-2.906-4.47-4.396-8.903-8.867-13.336-13.301-.559-.559-1.192-.968-1.751-1.49-1.304-1.192-1.192-2.049.335-2.757 3.576-1.639 7.153-3.204 10.766-4.806 1.118-.485 2.235-1.043 3.353-1.49 1.49-.597 1.527-.894.298-1.9-5.029-4.173-10.058-8.309-15.087-12.481-2.981-2.46-5.998-4.918-8.978-7.415-.373-.335-.857-.596-.783-1.229.15-.15.261-.186.41-.075z" fill="#40596B"/><path d="M38.007 156.888c-3.203-5.477-6.407-10.99-9.685-16.43-.485-.82-.373-1.23.223-1.826 4.843-4.806 9.648-9.686 14.529-14.492 2.533-2.497 2.57-2.459-.708-3.95-4.06-1.825-8.196-3.614-12.294-5.402-.372-.149-.745-.372-1.117-.522-.969-.409-.969-.931-.186-1.564 2.868-2.347 5.736-4.695 8.568-7.042 3.948-3.241 7.934-6.482 11.883-9.761 1.788-1.49 3.54-3.018 5.327-4.508 1.006.112.969.931 1.043 1.602.708 8.271 1.49 16.542 2.236 24.776.223 2.719.41 5.476.782 8.196 1.006 9.799 1.788 19.597 2.72 29.396.036.559.074 1.117-.41 1.564-7.637-.037-15.274-.037-22.91-.037zm59.455-65.535c1.974 1.677 3.912 3.39 5.886 5.03 3.912 3.242 7.823 6.446 11.735 9.65a647.768 647.768 0 007.897 6.445c1.118.894 1.118 1.23-.223 1.863a1296.125 1296.125 0 01-14.752 6.594c-1.379.634-1.49 1.118-.336 2.124 5.551 4.881 10.506 10.395 15.833 15.536.596.596.707 1.006.223 1.826-3.278 5.439-6.445 10.953-9.686 16.43-7.636 0-15.31.037-22.947.037-.559-.521-.41-1.192-.373-1.863.783-8.681 1.64-17.324 2.347-26.005.075-1.006.261-2.012.41-3.018.447-3.986.708-8.01 1.08-12.034.597-6.259 1.118-12.481 1.714-18.74.075-.82.075-1.639.186-2.421.075-.634.075-1.379 1.006-1.454z" fill="#334A5E"/><path d="M85.132 156.888H66.84c-.485-.447-.336-1.006-.261-1.565 1.192-10.171 2.347-20.342 3.688-30.513.223-1.825 0-3.278-1.528-4.471-.782-.633-1.564-1.341-2.048-2.272-.261-.708.186-1.155.633-1.602 2.458-2.422 4.843-4.955 7.19-7.489 1.303-1.378 1.564-1.304 2.98 0 .968.894 1.788 1.975 2.644 2.943 1.416 1.453 2.869 2.869 4.285 4.322.484.485 1.117.969.856 1.826-.596 1.08-1.564 1.862-2.458 2.719-1.006.932-1.304 2.012-1.118 3.316.969 7.116 1.714 14.232 2.57 21.348.41 3.316.783 6.669 1.155 10.022.075.522.15 1.044-.297 1.416z" fill="#FE7058"/><path d="M79.99 112.106c-1.117-1.118-2.234-2.198-3.315-3.353-.484-.485-.782-.597-1.341-.038-2.868 3.018-5.774 5.999-8.642 8.979-2.496 2.608-4.806 5.365-7.414 7.861-.298.261-.559.596-1.043.41-.596-2.72-.596-5.551-.894-8.308-.67-6.483-1.192-12.965-1.788-19.41-.15-1.715-.26-3.466-.41-5.18-.074-.596.15-1.34-.596-1.713-.112-.038-.223-.038-.298-.075.186-.112.41-.223.596-.335.112.037.187.074.298.112 2.086.856 3.54 2.57 5.216 3.912 4.619 3.688 9.238 7.376 13.746 11.214.968.82 1.937 1.416 3.24 1.118a18.245 18.245 0 001.826 1.974c.82.708 1.602 1.602.82 2.832z" fill="#CCD5DF"/><path d="M58.235 125.965c2.682-2.161 4.62-4.992 7.153-7.302.41-.373.707-.894 1.303-.969.857.857 1.602 1.863 2.608 2.608 1.527 1.118 1.676 2.534 1.453 4.285-1.341 10.655-2.608 21.348-3.911 32.041v.298h-5.924l-1.006-11.848c-.447-5.104-.93-10.208-1.415-15.313-.075-1.266-.15-2.533-.26-3.8zm26.897 30.923c-.746-6.408-1.49-12.853-2.236-19.262-.558-4.768-1.117-9.5-1.713-14.269-.112-1.006.111-1.751.856-2.422 1.118-1.006 2.161-2.16 3.241-3.241.299-.261.596-.149.82.075 2.72 2.57 5.513 5.104 7.637 8.196-.447 5.216-.894 10.432-1.379 15.611l-1.34 15.312h-5.886z" fill="#F1F1F1"/><path d="M93.774 125.965c-2.384-2.422-4.768-4.88-7.152-7.302-.373-.373-.67-.894-1.304-.969-1.788-1.863-3.54-3.725-5.327-5.588.112-1.342-.41-2.348-1.602-3.018-.708-.41-1.08-1.043-1.192-1.826.074-1.08 1.117-1.341 1.713-1.937.634-.633 1.379-1.155 2.087-1.714 4.693-3.837 9.424-7.6 14.081-11.438.522-.447 1.043-1.006 1.788-1.08a.537.537 0 00.26-.075c.187.112.41.224.597.336-.112.037-.224.037-.298.074-.708.261-.522.931-.559 1.416a3341.616 3341.616 0 00-2.459 27.16c-.148 1.975-.186 3.986-.633 5.961z" fill="#CCD5DF"/><path d="M45.048 58.195c.112.708-.224 1.006-.894.969-2.533-.708-3.95-2.608-4.992-4.806-2.31-4.88-1.453-10.842 2.049-14.381.67 5.737 1.676 11.4 3.315 16.951.447.298.261.895.522 1.267zm62.845.969c-.671.037-1.006-.224-.932-.932.261-.372.187-.931.596-1.266 1.491-5.29 2.645-10.619 3.13-16.095.037-.261.149-.485.223-.708 1.639 1.304 2.496 3.13 2.869 5.104.857 4.62.298 8.942-3.241 12.444-.783.708-1.602 1.304-2.645 1.453z" fill="#FFE3AB"/><path d="M45.048 58.195c-.41-.335-.41-.82-.522-1.267.373-.335.112-.82.298-1.192.41.82.187 1.64.224 2.459z" fill="#868464"/><path d="M107.52 57.003c0 .521-.186.931-.595 1.267.037-.708-.187-1.49.26-2.161.149.26-.037.67.335.894z" fill="#9C9062"/><path d="M81.22 103.835c-1.341 1.155-2.645 2.272-3.986 3.427-.857.82-1.527.671-2.459-.112-6.295-5.178-12.666-10.282-18.999-15.424-.223-.186-.41-.447-.633-.67V80.549c4.359 4.732 7.563 10.171 13.523 12.593 3.427 2.31 6.52 5.104 9.76 7.6a53.405 53.405 0 012.272 1.826c.336.372.895.633.522 1.267z" fill="#FFD584"/><path d="M81.22 103.835c-.894-1.491-2.422-2.236-3.688-3.279-2.682-2.235-5.476-4.36-8.196-6.557-.26-.224-.447-.559-.67-.82 3.24.82 6.556.67 9.834.633 5.104-.037 9.09-2.31 12.331-6.221 1.9-2.273 3.986-4.397 6.072-6.67v10.172c-3.576 2.943-7.115 5.886-10.691 8.792a256.556 256.556 0 01-4.992 3.95z" fill="#FFCC69"/></svg>