<svg width="158" height="150" fill="none" xmlns="http://www.w3.org/2000/svg"><path d="M22.7 62.368c.571-3.38 1.186-6.803 1.756-10.182.439-2.633.966-5.266 1.36-7.944.352-2.325-.482-4.3-2.15-5.924-3.994-3.906-7.987-7.812-12.025-11.718-.658-.658-1.492-1.229-1.097-2.37.351-1.053 1.36-.965 2.194-1.097 5.53-.834 11.06-1.668 16.59-2.414 2.633-.35 4.432-1.755 5.573-4.081 2.414-4.916 4.828-9.83 7.285-14.702.44-.834.659-2.02 1.931-1.931 1.23.043 1.493 1.185 1.888 2.018 2.325 4.696 4.695 9.392 6.977 14.132 1.23 2.545 2.985 4.301 5.925 4.564 1.054.088.922.57.57 1.317-.438.878-1.59 4.432-2.424 4.564-5.486.79-11.092 1.8-16.578 2.545-2.985.396-2.963 1.172-2.952 3.512.011 2.326 2.753 3.61 4.663 5.66 3.203 3.44 3.467 3.687 7.286 7.286 1.228 1.185 2.892 4.045 2.973 7.022.035 1.296.375 2.282-.44 3.291-1.33 1.65-3.016.308-5.386-.658-2.15-.878-4.17-.614-6.144.439a2506.762 2506.762 0 01-15.141 7.944c-1.448.79-2.633.219-2.633-1.273zm101.666 0c-.57-3.38-1.185-6.803-1.755-10.182-.439-2.633-.966-5.266-1.361-7.944-.351-2.325.483-4.3 2.151-5.924 3.994-3.906 7.987-7.812 12.025-11.718.658-.658 1.492-1.229 1.097-2.37-.351-1.053-1.36-.965-2.194-1.097-5.53-.834-11.06-1.668-16.59-2.414-2.633-.35-4.432-1.755-5.573-4.081-2.414-4.916-4.828-9.83-7.285-14.702-.439-.834-.659-2.02-1.931-1.931-1.229.043-1.493 1.185-1.887 2.018-2.326 4.696-4.696 9.392-6.978 14.132-1.23 2.545-2.985 4.301-5.925 4.564-1.053.088-.922.57-.57 1.317.438.878 1.59 4.432 2.424 4.564 5.486.79 11.092 1.8 16.578 2.545 2.985.396 2.963 1.172 2.952 3.512-.011 2.326-2.753 3.61-4.663 5.66-3.203 3.44-3.467 3.687-7.285 7.286-1.23 1.185-2.893 4.045-2.974 7.022-.035 1.296-.375 2.282.44 3.291 1.33 1.65 3.016.308 5.386-.658 2.151-.878 4.169-.614 6.144.439 5.047 2.677 10.094 5.31 15.141 7.944 1.448.79 2.633.219 2.633-1.273z" fill="#FFF962"/><path d="M47.672 30.023c3.204-.483 6.408-1.053 9.655-1.404 2.107-.22 3.906-1.097 5.706-2.019.965-1.053 2.326-.878 3.51-.966 2.765-.219 4.565-1.492 5.486-4.125.22-.658.44-1.36 1.273-1.58.922.176 1.141.966 1.404 1.668 1.01 2.633 2.81 3.95 5.706 4.081 1.272.044 2.633.044 3.73.966 2.063 1.755 4.696 1.843 7.198 2.238 2.589.395 5.134.746 7.724 1.141 1.141 1.097 1.404 2.633.702 4.301-.527 1.229-1.492 2.15-2.458 3.028-3.993 3.423-7.504 7.33-11.235 11.016-1.053 1.01-1.404 2.282-1.14 3.73.92 4.74 1.58 9.48 2.457 14.22.132.79.483 1.623-.176 2.326-3.335-1.712-6.715-3.424-10.006-5.223-2.59-1.404-5.047-1.36-7.636.044-3.292 1.8-6.671 3.467-10.006 5.222-.527-.526-.264-1.14-.176-1.711.79-4.74 1.536-9.524 2.502-14.263.438-2.282-.22-3.994-1.888-5.442-4.213-3.643-7.9-7.724-11.849-11.63-1.975-1.843-2.063-3.95-.483-5.618z" fill="#FFF962"/><path d="M47.672 30.023c-1.141 2.809-.965 3.774 1.273 5.925 3.818 3.686 7.373 7.636 11.41 11.103 1.712 1.492 2.37 3.248 1.888 5.706-1.054 5.266-1.844 10.62-2.721 15.887-1.668.921-3.38 1.799-5.047 2.72-.615.352-1.23.44-1.844-.043-.57-.483-.658-1.054-.526-1.756.965-5.661 1.887-11.323 2.896-16.984.483-2.721-.263-4.96-2.194-6.846-3.95-3.862-7.944-7.724-11.894-11.587-.614-.614-1.404-1.14-1.097-2.194.351-1.053 1.273-1.053 2.15-1.14 1.932-.264 3.819-.527 5.706-.79zM87.17 68.6c-.614-3.819-1.185-7.637-1.843-11.41-.307-1.976-.79-3.95-1.053-5.926-.176-1.316.483-2.413 1.448-3.335 4.126-3.994 8.075-8.163 12.332-12.025 1.931-1.756 2.151-3.599.966-5.925 2.019.264 3.994.57 6.012.834.79.088 1.536.176 1.843 1.053.308.966-.307 1.537-.877 2.107-3.862 3.73-7.68 7.505-11.543 11.191-2.326 2.238-3.335 4.784-2.633 7.987.307 1.317.483 2.678.703 4.038l2.106 12.113c.132.79.22 1.536-.57 2.063-.703.482-1.36.219-1.975-.132-1.624-.834-3.248-1.756-4.916-2.633zm-3.072-42c-1.58-.22-3.204-.483-4.784-.658-2.018-.264-3.554-1.097-4.388-3.072-.395-1.01-1.01-1.887-1.536-2.853-1.492-2.238-3.028-4.476-3.38-7.241.659-1.36 1.317-2.765 1.931-4.126.308-.658.747-1.097 1.493-1.097.834.044 1.228.659 1.536 1.317 1.58 3.248 3.16 6.495 4.783 9.699 1.405 2.677 2.414 5.617 4.345 8.031zM70.01 12.776c1.141 2.413 2.239 4.827 3.38 7.241-.659.614-.878 1.492-1.185 2.282-.922 2.282-2.633 3.467-5.135 3.643-1.36.087-2.677.395-3.994.614 2.282-4.608 4.608-9.172 6.934-13.78z" fill="#FFF962"/><path d="M132.9 95.766c0-.483.22-1.01-.307-1.36-.571.57-.483 1.316-.483 2.018v6.232c0 1.975-.132 2.107-2.15 2.107h-3.599c-4.828-.044-9.48.79-14.044 2.15l-3.555-4.257-31.96 14.263-15.35-8.163a37.89 37.89 0 00-.79-.482C49.604 102.261 38.5 96.249 27.44 90.236c-3.906-2.107-7.768-4.3-11.718-6.32-4.476-2.326-9.699.176-10.27 5.003-.394 2.94 1.23 5.091 3.292 6.978 16.063 14.746 32.213 29.448 48.232 44.282 5.047 4.696 10.577 5.749 16.94 3.38 12.157-4.565 24.357-9.041 36.426-13.781 6.934-2.721 13.868-3.643 21.066-1.668 1.36.351 1.536 0 1.536-1.228-.044-10.36-.044-20.677-.044-30.993v-.123z" fill="#FFE3AB"/><path d="M132.593 94.405c0 3.072-.044 6.144.044 9.216.044 1.273-.351 1.712-1.668 1.668-4.696-.132-9.391-.132-14 .966-2.106.526-4.213 1.097-6.319 1.624-1.273-1.888-2.239-2.151-4.433-1.098-12.069 5.881-24.138 11.762-36.163 17.687-2.326 1.141-4.608 1.404-6.89-.044-3.994-2.59-3.906-8.163.176-10.665 1.316-.79 2.72-1.404 4.125-2.062 10.928-5.311 21.768-10.84 32.827-15.887 10.182-4.652 20.847-5.223 31.599-1.756.219.088.439.263.702.351z" fill="#FED88D"/><path d="M145.101 85.54c1.711 0 3.379.044 5.091-.088 1.36-.088 1.799.439 1.799 1.8-.044 8.206-.044 16.457-.044 24.664 0 7.68-.044 15.36.044 23.04 0 1.493-.439 2.107-1.975 1.975-1.624-.131-3.291-.043-4.915-.087-1.053-.878-.834-2.063-.834-3.204V87.734c0-.834.088-1.623.834-2.194z" fill="#3BB19F"/><path d="M145.101 85.54c-.264.834-.308 1.712-.308 2.59v46.168c0 .878.088 1.756.308 2.59-1.712.043-3.38 0-5.091.087-1.449.088-1.887-.395-1.887-1.843.044-7.987.044-15.975.044-24.006 0-7.943.043-15.887-.044-23.83 0-1.449.438-1.975 1.887-1.888 1.667.132 3.379.088 5.091.132z" fill="#4BDAC2"/><path d="M81.904 43.277c-.044 5.179-3.906 8.91-9.085 8.69-4.696-.176-8.338-4.52-7.987-9.48.131-1.711 1.14-2.765 2.633-2.765 1.58 0 2.545 1.054 2.59 2.897.043 1.185.13 2.326 1.052 3.16.922.877 2.02 1.097 3.204.746 1.273-.351 1.975-1.317 2.238-2.59.088-.482.044-.965.044-1.492.088-1.711 1.097-2.764 2.59-2.764 1.536 0 2.545 1.053 2.633 2.72.088.352.088.615.088.878z" fill="#5F266D"/><path d="M59.61 39.46c-2.151 0-3.731-1.58-3.731-3.731 0-2.063 1.58-3.687 3.598-3.73 2.063-.088 3.819 1.623 3.863 3.686 0 2.106-1.624 3.774-3.73 3.774zm31.29-3.775c.044 2.15-1.535 3.774-3.642 3.774-2.15 0-3.73-1.58-3.73-3.73 0-2.107 1.623-3.73 3.73-3.73 2.019.043 3.599 1.623 3.642 3.686z" fill="#5F266C"/><path d="M95.904 131.533c-1.405-.131-2.37-.614-2.721-1.799-.395-1.273-.176-2.502 1.097-3.116 2.238-1.01 4.477-1.975 6.802-2.765 1.229-.439 2.282.132 2.897 1.273.614 1.141.527 2.414-.483 3.116-2.37 1.58-5.178 2.238-7.592 3.291z" fill="#5F266D"/><path d="M114.161 122.317c.044 1.58-1.493 2.984-3.292 2.984-1.404 0-2.589-1.141-2.633-2.589-.044-1.624 1.448-2.941 3.291-2.941 1.405-.043 2.59 1.098 2.634 2.546z" fill="#60276D"/></svg>