<svg width="64" height="64" fill="none" xmlns="http://www.w3.org/2000/svg"><g clip-path="url(#clip0_4059_38202)" fill-rule="evenodd" clip-rule="evenodd" fill="#941759"><path d="M9.42 27.988a6.91 6.91 0 00-3.195 9.236l5.908 12.159a6.91 6.91 0 009.237 3.194l31.61-15.363a6.91 6.91 0 003.195-9.236L50.266 15.82a6.91 6.91 0 00-9.236-3.195L9.42 27.988zM4.065 38.273A9.31 9.31 0 018.37 25.83l31.611-15.363a9.31 9.31 0 0112.444 4.304l5.909 12.158a9.31 9.31 0 01-4.304 12.444L22.419 54.736a9.31 9.31 0 01-12.444-4.304L4.066 38.273z"/><path d="M18.737 42.009a1.504 1.504 0 00-.695 2.01l1.181 2.431a1.504 1.504 0 002.01.695l4.863-2.363a1.504 1.504 0 00.695-2.01L25.61 40.34a1.504 1.504 0 00-2.01-.695l-4.863 2.364zm-2.854 3.059a3.904 3.904 0 011.805-5.218l4.863-2.363a3.904 3.904 0 015.217 1.804l1.182 2.432a3.904 3.904 0 01-1.805 5.217l-4.863 2.364a3.904 3.904 0 01-5.217-1.805l-1.182-2.431zm35.079-29.516l-45.6 22.16-1.05-2.158 45.6-22.16 1.05 2.158zm2.226 4.57l-45.61 22.16-1.048-2.159 45.609-22.16 1.049 2.159zM40.382 31.167a1.2 1.2 0 01-.538 1.61l-7.368 3.677a1.2 1.2 0 11-1.072-2.147l7.368-3.678a1.2 1.2 0 011.61.538zm10.814-5.407a1.2 1.2 0 01-.537 1.61l-7.21 3.604a1.2 1.2 0 11-1.073-2.147l7.21-3.604a1.2 1.2 0 011.61.536zm.42 6.942a1.2 1.2 0 01-.555 1.604l-2.688 1.306a1.2 1.2 0 11-1.049-2.158l2.688-1.307a1.2 1.2 0 011.604.555zm-6.272 3.048a1.2 1.2 0 01-.555 1.604l-3.584 1.742a1.2 1.2 0 11-1.048-2.16l3.583-1.74a1.2 1.2 0 011.604.554zm-8.063 3.919a1.2 1.2 0 01-.555 1.604l-2.688 1.306a1.2 1.2 0 01-1.05-2.159l2.689-1.306a1.2 1.2 0 011.604.555z"/></g><defs><clipPath id="clip0_4059_38202"><path fill="#fff" d="M0 0h64v64H0z"/></clipPath></defs></svg>