<svg width="64" height="64" fill="none" xmlns="http://www.w3.org/2000/svg"><path fill-rule="evenodd" clip-rule="evenodd" d="M7.6 31.6c0-13.255 10.745-24 24-24s24 10.745 24 24-10.745 24-24 24-24-10.745-24-24zm24-26.4C17.02 5.2 5.2 17.02 5.2 31.6 5.2 46.18 17.02 58 31.6 58 46.18 58 58 46.18 58 31.6 58 17.02 46.18 5.2 31.6 5.2zM11.728 31.6c0-10.975 8.897-19.873 19.872-19.873S51.472 20.625 51.472 31.6c0 10.975-8.897 19.872-19.872 19.872S11.728 42.575 11.728 31.6zM31.6 9.328c-12.3 0-22.272 9.971-22.272 22.272 0 12.3 9.971 22.272 22.272 22.272 12.3 0 22.273-9.971 22.273-22.272 0-12.3-9.972-22.272-22.273-22.272zm0 12.92a1.2 1.2 0 011.2 1.2v10.427a1.2 1.2 0 01-2.4 0v-1.967a1.195 1.195 0 01-.334-.424L23.115 16.71a1.2 1.2 0 012.171-1.022L30.4 26.557v-3.11a1.2 1.2 0 011.2-1.2zm-.747-5.446a1.303 1.303 0 100-2.607 1.303 1.303 0 000 2.607zm1.303 31.717a1.303 1.303 0 11-2.606 0 1.303 1.303 0 012.606 0zm16.076-15.207a1.304 1.304 0 100-2.607 1.304 1.304 0 000 2.607zM16.515 32.01a1.304 1.304 0 11-2.607 0 1.304 1.304 0 012.607 0zm2.172-9.125a1.303 1.303 0 100-2.606 1.303 1.303 0 000 2.606zm2.173 20.421a1.304 1.304 0 11-2.607 0 1.304 1.304 0 012.607 0zm22.159 1.304a1.303 1.303 0 100-2.607 1.303 1.303 0 000 2.607zm3.04-23.028a1.303 1.303 0 11-2.606 0 1.303 1.303 0 012.607 0z" fill="#941759"/></svg>