<svg width="64" height="64" fill="none" xmlns="http://www.w3.org/2000/svg"><path fill-rule="evenodd" clip-rule="evenodd" d="M27.2 6.8a6 6 0 00-6 6v8.8c0 .022 0 .044.002.066-5.638 1.495-9.88 6.42-10.357 12.404-1.198.154-2.088.555-2.74 1.13-.81.715-1.095 1.573-1.235 1.993l-.009.027a1.2 1.2 0 00-.061.38v4.8c0 .708.331 1.288.698 1.706.369.42.843.761 1.324 1.025.947.522 2.145.869 3.178.869a1.2 1.2 0 001.2-1.2v-9.614c0-.335.015-.667.043-.995.7.17 1.518.278 2.372.332 1.274.08 2.724.044 4.17-.132 1.441-.175 2.913-.493 4.217-.997 1.29-.497 2.51-1.214 3.335-2.244.106-.133.206-.262.3-.388.2.356.433.682.695.979.796.904 1.799 1.469 2.823 1.816 1.768.598 3.73.587 5.188.484.037.377.056.759.057 1.145v8.059c-.02 5.018-3.225 9.285-7.699 10.882A2.39 2.39 0 0027.2 53.6H24a2.4 2.4 0 100 4.8h3.2a2.4 2.4 0 002.372-2.035 14.023 14.023 0 008.965-10.45 7.37 7.37 0 002.241-.784c.48-.264.955-.604 1.324-1.025.366-.418.698-.998.698-1.706v-4.8a1.2 1.2 0 00-.062-.38l-.009-.027c-.14-.42-.425-1.278-1.235-1.993-.652-.575-1.541-.976-2.74-1.13a13.95 13.95 0 00-.527-2.847h7.258a3.6 3.6 0 012.561 1.071l2.881 2.918c1.635 1.655 4.455.498 4.455-1.829v-1.698c0-.723.586-1.309 1.309-1.309a3.71 3.71 0 003.709-3.709V12.8a6 6 0 00-6-6H27.2zm8.652 24.867C34.358 26.988 29.974 23.6 24.8 23.6c-5.235 0-9.66 3.467-11.103 8.23.507.135 1.211.244 2.068.297 1.126.07 2.429.04 3.73-.118 1.305-.159 2.573-.44 3.642-.853 1.085-.42 1.87-.936 2.326-1.506.723-.903 1.073-1.61 1.24-1.987.035-.078.061-.141.087-.201l.02-.05c.014-.032.034-.079.055-.123v-.002c.01-.02.07-.153.173-.28l.003-.004a1.204 1.204 0 011.973.125c.116.19.15.368.158.411v.003c.013.068.019.125.021.156.005.07.007.155.007.224.14 1.031.495 1.735.933 2.233.455.517 1.063.882 1.791 1.128 1.22.413 2.655.454 3.928.384zm1.422-2.83c.059-.01.119-.014.18-.014h8.03a6 6 0 014.27 1.785l2.881 2.918a.187.187 0 00.103.06.217.217 0 00.118-.015.217.217 0 00.095-.072.186.186 0 00.03-.116v-1.698a3.71 3.71 0 013.71-3.709A1.31 1.31 0 0058 26.667V12.8a3.6 3.6 0 00-3.6-3.6H27.2a3.6 3.6 0 00-3.6 3.6v8.45c.395-.033.796-.05 1.2-.05 5.44 0 10.156 3.103 12.474 7.637zM38.8 43.2v.182c.281-.092.563-.212.822-.354.32-.175.545-.355.676-.505a.579.579 0 00.102-.146V37.8c-.111-.31-.237-.575-.494-.801-.188-.166-.515-.37-1.106-.492V43.2zm-29.6-.823V37.8c.11-.31.237-.575.494-.801.187-.166.515-.37 1.106-.492v6.874a4.85 4.85 0 01-.822-.354c-.32-.175-.545-.355-.676-.505a.58.58 0 01-.102-.146zm11.906 3.557a1.2 1.2 0 00-2.22.911L20 46.4a88.34 88.34 0 00-1.114.447v.002l.002.003.003.007.008.018a1.93 1.93 0 00.082.175c.053.102.128.235.23.388.205.307.52.697.98 1.082.942.784 2.416 1.478 4.609 1.478s3.667-.694 4.608-1.478a5.1 5.1 0 00.98-1.082 4.017 4.017 0 00.313-.563l.007-.018.003-.007.002-.003v-.002s.001-.002-1.113-.447l1.114.445a1.2 1.2 0 00-2.22-.911l-.002.004-.008.016c-.015.03-.045.083-.093.155-.095.143-.26.353-.52.569-.498.415-1.424.922-3.071.922-1.647 0-2.573-.507-3.072-.922a2.701 2.701 0 01-.52-.569 1.637 1.637 0 01-.102-.175zM43.6 16a1.2 1.2 0 011.2-1.2h8a1.2 1.2 0 010 2.4h-8a1.2 1.2 0 01-1.2-1.2zm-14.8 1.2H40a1.2 1.2 0 000-2.4H28.8a1.2 1.2 0 000 2.4zm8.4 5.2a1.2 1.2 0 011.2-1.2h14.4a1.2 1.2 0 010 2.4H38.4a1.2 1.2 0 01-1.2-1.2zM20.8 40a1.6 1.6 0 100-3.2 1.6 1.6 0 000 3.2zm9.6-1.6a1.6 1.6 0 11-3.2 0 1.6 1.6 0 013.2 0z" fill="#941759"/></svg>