<svg width="16" height="16" fill="none" xmlns="http://www.w3.org/2000/svg"><path d="M5.026 8.857l4.94-3.104L6.48 9.538l3.06 2.505c.547.252.747-.272.747-.272l1.4-7.418s.024-.19.014-.228c-.1-.353-.647-.098-.647-.098L3.051 7.324s-.379.136-.349.387c.03.251.34.366.34.366l1.985.78" fill="#FB6F70" fill-opacity=".4"/><path d="M11.978 4.04a.535.535 0 00-.501-.403 1.25 1.25 0 00-.53.11v-.001l-7.99 3.292c-.257.092-.54.31-.546.632a.416.416 0 00.004.078c.05.424.48.596.524.612l1.852.728.713 2.387c.068.226.18.518.385.598a.493.493 0 00.526-.096l1.133-1.179 1.81 1.483c.02.016.04.03.063.04.15.068.284.093.397.093a.732.732 0 00.29-.059.891.891 0 00.447-.472.338.338 0 00.015-.053l1.404-7.438c.033-.253.015-.313.004-.352zM5.371 8.993l2.866-1.8L6.27 9.327a.293.293 0 00-.066.134l-.292 1.341-.541-1.81zm6.03-4.697l-1.393 7.379a.283.283 0 01-.12.12c-.052.023-.12.017-.202-.016L6.911 9.506l3.265-3.544a.312.312 0 00.018-.398.282.282 0 00-.377-.07l-4.82 3.028-1.856-.729a.38.38 0 01-.14-.098.543.543 0 01.157-.09L11.16 4.31l.014-.007a.762.762 0 01.234-.062l-.007.056z" fill="#FB6F70"/><path d="M7.928 15.745c-4.163 0-7.55-3.532-7.55-7.872C.378 3.532 3.765 0 7.928 0s7.55 3.532 7.55 7.873c0 4.34-3.387 7.872-7.55 7.872zm0-15.14c-3.843 0-6.97 3.26-6.97 7.268 0 4.006 3.127 7.266 6.97 7.266 3.842 0 6.969-3.26 6.969-7.266 0-4.007-3.127-7.267-6.97-7.267z"/></svg>