<svg width="40" height="45" fill="none" xmlns="http://www.w3.org/2000/svg"><path d="M38.838 9.894c-.728-2.723-2.185-4.881-4.37-6.383C31.736 1.539 28.64.882 25.908.507c-3.733-.563-7.102-.657-10.38-.282-3.005.376-5.281 1.033-7.375 1.971C4.055 4.168 1.688 7.266.868 11.49.504 13.554.231 15.432.14 17.121c-.365 4.13 0 7.698.91 11.077.91 3.285 2.459 5.632 4.826 7.134.637.375 1.366.657 2.094.938.456.188.82.282 1.184.47.364.187.364.187.364.469v6.852c0 .47.456.939.91.939h.365c.273 0 .455-.094.638-.282.182-.187 4.37-4.318 5.918-6.007l.182-.282c.274-.281.274-.281.547-.281 2.094 0 4.097-.094 6.1-.282 2.459-.094 5.373-.375 8.104-1.596 2.459-1.032 4.28-2.722 5.373-5.069 1.092-2.346 1.82-4.974 2.094-7.884.546-4.975.182-9.387-.91-13.423zm-.82 13.423c-.272 2.722-.819 5.068-1.911 7.227-.91 1.878-2.368 3.192-4.462 4.13-2.459 1.033-5.1 1.315-7.467 1.409-2.003.093-4.006.187-6.1.187-1.093 0-1.457.47-1.912.939l-.183.188c-1.001 1.126-3.278 3.379-4.644 4.787v-4.975c0-1.408-.819-1.877-1.365-2.253-.365-.188-.82-.375-1.366-.563-.638-.282-1.366-.47-1.73-.751-2.004-1.314-3.278-3.285-4.098-6.008-.91-3.097-1.184-6.57-.82-10.419.092-1.69.365-3.473.73-5.538.637-3.66 2.64-6.195 6.191-7.885 1.912-.938 4.006-1.502 6.83-1.783a26.536 26.536 0 013.915-.282c1.912 0 3.824.188 5.918.47 2.64.375 5.372 1.032 7.74 2.722 1.821 1.314 3.005 3.097 3.642 5.35 1.184 3.942 1.548 8.167 1.093 13.048z"/><path d="M28.913 26.133c-.91-.657-1.73-1.314-2.64-1.972-1.366-1.032-2.823-1.126-3.825.564-.09.093-.09.187-.182.281-.546.563-1.183.751-1.82.376-2.55-1.127-4.554-2.816-5.738-5.445-.728-1.502-.546-2.346.82-3.285.091-.094.273-.188.364-.282.547-.563.729-1.22.364-1.877-.728-1.69-1.82-3.191-3.095-4.412-.456-.469-1.002-.657-1.64-.563-1.638.376-3.277 1.596-3.277 3.849.09.281 0 .657.182.938.546 1.408 1.001 2.816 1.639 4.037 3.278 6.289 8.195 10.607 14.478 13.423.728.375 1.548.375 2.276.093 1.002-.469 1.912-1.126 2.55-2.158.82-1.596.91-2.535-.456-3.567zM21.447 6.514c-1.184 0-2.277.188-3.37.564-.455.187-.728.657-.546 1.22.182.563.638.75 1.184.563.91-.282 1.821-.47 2.732-.47 4.735 0 8.65 4.037 8.65 8.918 0 1.033-.182 2.065-.455 3.004-.183.47.09 1.032.546 1.22.091 0 .182.094.273.094a.88.88 0 00.82-.657c.364-1.127.637-2.347.637-3.567 0-6.007-4.735-10.889-10.471-10.889z"/><path d="M26.82 20.125c.09 0 .181.094.272.094a.88.88 0 00.82-.657c.273-.751.364-1.502.364-2.253 0-3.848-3.096-7.04-6.83-7.04-.728 0-1.456.094-2.184.376-.456.187-.729.657-.547 1.22.182.563.638.75 1.184.563a5.015 5.015 0 011.639-.282c2.732 0 5.008 2.347 5.008 5.163 0 .563-.091 1.127-.273 1.596-.273.563 0 1.032.546 1.22z"/><path d="M23.36 18.905c.09 0 .181.094.272.094a.88.88 0 00.82-.657c.09-.376.182-.657.182-1.033 0-1.783-1.457-3.285-3.187-3.285-.364 0-.729.094-1.002.188-.455.187-.728.656-.546 1.22.182.47.637.75 1.184.563.182-.094.273-.094.455-.094.729 0 1.366.657 1.366 1.408 0 .188 0 .282-.091.47-.182.469 0 1.032.546 1.126z"/></svg>