<svg width="40" height="42" fill="none" xmlns="http://www.w3.org/2000/svg"><path d="M20 42C8.972 42 0 32.58 0 21S8.972 0 20 0c11.029 0 20 9.42 20 21s-8.971 21-20 21zm0-40.385C9.82 1.615 1.538 10.312 1.538 21c0 10.688 8.283 19.385 18.462 19.385 10.18 0 18.462-8.697 18.462-19.385 0-10.688-8.283-19.385-18.462-19.385z"/><path d="M27.48 22.136s3.057-4.703 3.361-6.19c.102-.532-.12-1.004-.648-1.004h-2.652c-.608 0-.83.451-1.012.855 0 0-1.434 3.295-3.179 5.317-.56.653-.703.894-1.012.894-.25 0-.223-.174-.223-.764v-5.166c0-.724-.364-1.136-.93-1.136h-4.252c-.324 0-.476.298-.476.567 0 .681 1.043.934 1.043 2.779v3.805c0 .765-.091 1.063-.435 1.063-.91 0-3.103-3.395-4.318-7.137-.244-.764-.532-1.077-1.22-1.077H8.873c-.384 0-.668.377-.668.78 0 .744.83 4.239 4.09 8.852 2.187 3.104 5.162 4.808 7.754 4.808 1.579 0 2.064-.25 2.064-.953v-2.38c0-.596.122-.851.446-.851.364 0 .957.16 2.46 1.716 1.783 1.786 1.853 2.567 2.825 2.567h2.976c.304 0 .587-.186.587-.717 0-.702-.87-1.974-2.207-3.463-.547-.765-1.438-1.603-1.72-1.986-.405-.447-.284-.712 0-1.18z"/></svg>