<svg width="40" height="42" fill="none" xmlns="http://www.w3.org/2000/svg"><path d="M0 42l2.962-11.315A21.42 21.42 0 01.487 20.657C.491 9.267 9.354 0 20.244 0c5.282.002 10.245 2.154 13.975 6.058 3.73 3.905 5.783 9.112 5.781 14.663-.005 11.42-8.868 20.708-19.756 20.708-3.144 0-6.307-.833-9.175-2.41L0 42zm11.272-4.724l.27.154c2.712 1.547 5.717 2.364 8.694 2.364 10.035 0 18.197-8.556 18.202-19.073.001-5.115-1.89-9.912-5.324-13.507-3.434-3.596-8.006-5.577-12.87-5.58-10.028 0-18.19 8.534-18.193 19.023a19.707 19.707 0 002.427 9.51l.163.296-2.422 9.251 9.053-2.438z"/><path clip-rule="evenodd" d="M15.097 10.823c-.418-.972-.858-.992-1.256-1.009-.325-.014-.697-.014-1.069-.014s-.976.146-1.486.73c-.512.586-1.953 1.998-1.953 4.871 0 2.874 1.998 5.65 2.278 6.041.279.39 3.857 6.475 9.526 8.816 4.711 1.945 5.67 1.559 6.692 1.46 1.022-.097 3.3-1.412 3.764-2.776.465-1.364.465-2.532.326-2.777-.14-.243-.512-.39-1.07-.682-.557-.292-3.299-1.705-3.81-1.899-.512-.194-.884-.292-1.256.292s-1.44 1.9-1.765 2.29c-.325.39-.651.438-1.208.146-.558-.293-2.354-.909-4.485-2.899-1.658-1.547-2.777-3.46-3.102-4.044-.325-.584-.036-.9.245-1.192.25-.261.557-.682.836-1.023.278-.342.371-.585.558-.975.185-.39.092-.73-.047-1.023-.14-.292-1.223-3.178-1.718-4.333z"/></svg>