<svg width="272" height="77" viewBox="0 0 272 77" fill="none" xmlns="http://www.w3.org/2000/svg">
<path d="M13.0674 60.7177C12.0525 59.782 10.6886 58.7904 9.15032 58.7904C7.33453 58.7904 6.89842 59.878 6.89842 60.6537C6.89842 61.9573 8.38118 62.3331 9.45956 62.581C12.6313 63.3247 16.1756 64.7243 16.1756 69.8505C16.1756 74.1689 13.1229 76.9999 8.07195 76.9999C5.29672 76.9999 3.10825 76.0642 0 73.5211L2.86245 68.8908C4.5593 70.5382 6.43852 71.7777 8.2226 71.7777C9.33269 71.7777 10.3476 71.2499 10.3476 69.9464C10.3476 67.9551 8.50012 67.7072 6.21651 66.9955C4.48794 66.4677 1.07045 65.2521 1.07045 60.5977C1.07045 57.087 3.59987 54.04 8.65078 54.04C11.008 54.0423 13.3048 54.792 15.2162 56.1833L13.0674 60.7177Z" fill="#333945"/>
<path d="M24.5014 54.624H31.8359L39.5114 76.3842H33.0412L31.8359 72.6256H24.5014L23.2961 76.3842H16.8259L24.5014 54.624ZM25.7066 67.8353H30.6386L28.1726 59.8382L25.7066 67.8353Z" fill="#333945"/>
<path d="M62.8706 63.7566C63.2988 68.8827 61.8557 76.9998 52.1504 76.9998C45.585 76.9998 40.2566 73.0013 40.2566 65.6519C40.2566 58.5344 44.7841 54 51.6904 54C58.4382 54 60.9359 57.8547 61.7051 59.2861L56.3767 61.8052C55.9384 60.9895 55.2814 60.3146 54.4807 59.8578C53.6801 59.4009 52.7681 59.1807 51.849 59.2222C49.0104 59.2222 46.2986 61.2454 46.2986 65.532C46.2986 69.8184 48.9787 72.2176 52.0631 72.2176C53.165 72.2767 54.2519 71.9407 55.1315 71.2688C56.011 70.5969 56.6263 69.6326 56.8683 68.5469H51.2861V63.7486L62.8706 63.7566Z" fill="#333945"/>
<path d="M65.8599 54.624H78.8082V59.8461H71.9019V62.8931H78.1581V67.6914H71.9019V71.1701H78.8082V76.3922H65.8599V54.624Z" fill="#333945"/>
<path d="M83.6768 54.624H89.7189L93.509 67.8993L97.2993 54.624H103.341L106.513 76.3842H100.701L99.115 63.7647L95.4755 76.3842H91.5902L87.9507 63.7647L86.3648 76.3842H80.5686L83.6768 54.624Z" fill="#333945"/>
<path d="M114.371 54.624H121.706L129.381 76.3842H122.903L121.698 72.6256H114.363L113.158 76.3842H106.688L114.371 54.624ZM115.576 67.8353H120.524L118.058 59.8382L115.576 67.8353Z" fill="#333945"/>
<path d="M131.109 54.624H137.176V76.3842H131.133L131.109 54.624Z" fill="#333945"/>
<path d="M141.037 54.624H147.079V71.1541H153.549V76.3762H141.037V54.624Z" fill="#333945"/>
<path d="M155.921 54.624H168.893V59.8461H161.987V62.8931H168.243V67.6914H161.987V71.1701H168.893V76.3922H155.921V54.624Z" fill="#333945"/>
<path d="M172.064 54.624H181C188.208 54.624 188.453 60.1581 188.453 61.1497C188.543 62.5893 188.148 64.0173 187.332 65.2018C186.516 66.3864 185.327 67.2581 183.957 67.6753L190 76.3762H182.697L178.138 69.1788V76.3762H172.064V54.624ZM179.58 64.4125C181.737 64.4125 182.419 63.173 182.419 61.8934C182.419 60.6139 181.745 59.4063 179.58 59.4063H178.098V64.4125H179.58Z" fill="#333945"/>
<path fill-rule="evenodd" clip-rule="evenodd" d="M256.3 4.64819C256.199 4.14504 256.501 3.6419 257.004 3.44065L268.563 0.0192806C269.066 -0.0813478 269.568 0.220538 269.769 0.723679L271.981 8.47206C272.081 8.97521 271.78 9.47835 271.277 9.6796L259.718 13.101C259.215 13.2016 258.712 12.8997 258.511 12.3966L256.3 4.64819ZM257.406 4.54756C257.607 4.3463 257.908 4.24567 258.109 4.3463L264.442 7.46578L268.061 1.42808C268.262 1.22682 268.563 1.12619 268.664 1.32745C268.965 1.52871 268.965 1.83059 268.865 2.03185L264.944 8.37144C264.844 8.57269 264.542 8.67332 264.341 8.57269L257.607 5.25196C257.406 5.0507 257.305 4.74882 257.406 4.54756ZM251.073 9.17645C250.972 8.9752 250.972 8.77394 251.173 8.67331L253.385 7.36514C253.586 7.26451 253.787 7.36514 253.887 7.5664C253.988 7.76766 253.988 7.96891 253.787 8.06954L251.575 9.37771C251.374 9.37771 251.173 9.37771 251.073 9.17645ZM208.453 74.6856C208.453 74.7359 208.478 74.7862 208.503 74.8365C208.529 74.8868 208.554 74.9371 208.554 74.9874C208.714 75.3886 208.938 75.5978 209.175 75.8192L209.175 75.8193L209.175 75.8194C209.236 75.8756 209.297 75.9326 209.358 75.9937C209.76 76.2956 210.162 76.4969 210.665 76.6981L210.966 76.7988C211.77 76.8994 212.574 77 213.379 77C214.283 77 215.188 77 215.992 76.7988C217.6 76.5975 218.103 76.0944 218.002 75.1887C217.801 74.4843 217.399 73.7799 216.897 73.2768C216.294 72.5724 215.992 71.7673 215.891 70.8617C215.891 69.8554 216.193 68.9497 216.696 68.0441C217.399 67.0378 218.002 66.0316 218.605 65.0254L218.605 65.0252C219.611 63.4152 219.611 60.0944 218.706 56.2706C218.706 56.1699 221.118 58.8869 220.515 64.0189C221.075 63.7788 221.253 63.7297 221.657 63.6184L221.657 63.6183L221.657 63.6182C221.761 63.5896 221.879 63.5569 222.023 63.5158C222.164 63.4845 222.302 63.4531 222.439 63.4222C223.181 63.2543 223.873 63.0976 224.637 63.0127V63.3145C224.335 66.1321 224.235 68.9497 224.436 71.7673C224.335 72.8742 224.536 74.0818 225.039 75.0881C225.541 76.0944 226.446 76.5975 228.054 76.6981L228.858 76.7988C228.99 76.8061 229.128 76.8144 229.271 76.8231L229.272 76.8232C231.107 76.9342 233.828 77.0989 234.387 75.7925C234.487 75.5912 234.487 75.39 234.487 75.0881C234.487 74.8868 234.487 74.6856 234.387 74.3837C234.186 73.8805 233.884 73.478 233.583 73.1761L233.583 73.176C233.382 72.8742 233.181 72.5723 232.98 72.1699C232.962 72.1008 232.945 72.0347 232.928 71.9706C232.848 71.6608 232.779 71.3964 232.779 71.0629C232.678 68.346 232.779 65.7296 233.08 63.0127C233.281 59.0882 235.09 56.7737 237.101 54.258L237.221 54.1071C238.799 52.1343 240.549 49.9463 241.725 46.6102C241.725 46.5599 241.75 46.5096 241.775 46.4593C241.8 46.409 241.825 46.3587 241.825 46.3084L242.227 45.9058C244.941 43.692 248.057 40.4719 248.359 37.6543C248.359 36.9499 248.66 36.3461 249.063 35.843C249.666 35.038 250.369 34.4342 251.173 33.9311L251.676 33.6292C251.738 33.6292 251.762 33.5907 251.795 33.5376C251.815 33.5048 251.839 33.4664 251.877 33.4279V33.2267C251.877 33.126 251.777 33.0254 251.777 33.0254C251.676 32.9248 251.676 32.9248 251.575 32.9248H251.475C250.671 32.9248 249.565 33.2267 248.861 33.5286C248.746 33.567 248.66 33.5907 248.587 33.611L248.587 33.611C248.515 33.6311 248.454 33.6478 248.39 33.6719C249.558 33.1327 250.79 31.9002 251.274 31.4154C252.681 29.9059 253.184 27.5915 253.184 25.3777C253.083 22.9626 252.279 20.5475 250.972 18.5349C250.671 18.0318 250.369 17.5286 250.068 16.9249C249.766 16.3211 249.465 15.818 249.163 15.3148C248.962 14.8117 248.861 14.5098 248.962 14.3085C249.063 14.1073 249.364 13.906 249.867 13.906H250.068C250.168 13.906 250.269 13.8054 250.269 13.8054C250.269 13.8054 250.369 13.6041 250.369 13.5035V13.3022C250.369 12.6985 250.269 12.1953 250.068 11.5916C249.867 11.0884 249.565 10.5853 249.163 10.1828L248.962 9.98151H248.66C248.057 9.98151 247.454 10.1828 246.851 10.384C246.047 10.6859 245.343 11.1891 244.941 11.8934C244.539 12.6985 244.338 13.5035 244.439 14.4092C244.519 14.8897 244.662 15.3064 244.819 15.7609C244.859 15.8775 244.9 15.9966 244.941 16.1198C245.042 16.3211 245.142 16.5224 245.142 16.7236C246.148 18.6356 247.354 21.5538 247.454 23.7676C247.655 25.6795 246.751 27.0883 243.534 27.4908L242.73 27.5915C242.155 27.6657 241.573 27.7228 240.999 27.7793L240.998 27.7793H240.998L240.998 27.7793L240.998 27.7793L240.998 27.7794C238.458 28.0288 236.056 28.2648 234.99 29.9059C234.94 29.9562 234.915 30.0066 234.889 30.0569C234.864 30.1072 234.839 30.1575 234.789 30.2078C235.794 30.5097 237 31.4154 237.704 32.7235C236.799 31.516 235.292 30.8116 234.588 30.6103C232.678 30.4091 231.371 31.1135 230.266 31.9185C229.763 32.321 229.26 32.8242 228.959 33.4279C228.255 34.5348 227.954 35.843 227.954 37.1512V37.4531V37.6543V38.0568C227.954 38.2581 228.054 38.56 228.054 38.56C228.557 40.8744 231.572 46.5096 238.006 46.8115C235.392 47.3146 228.858 46.2077 226.345 39.6669C223.933 40.6732 221.822 41.3776 219.309 42.082C212.273 44.1952 205.639 46.2077 205.035 53.1511C205.035 53.1939 205.035 53.2184 205.028 53.2403C205.017 53.2699 204.993 53.2945 204.935 53.3523C204.131 54.6605 203.528 56.0693 203.226 57.5787C202.925 59.2894 202.925 61.0001 203.226 62.7108C203.226 62.8114 203.226 62.8114 203.327 62.8114L203.427 62.912L203.528 63.0127H203.729H203.93C204.03 63.0127 204.131 62.912 204.131 62.8114C204.231 62.6101 204.231 62.5095 204.231 62.3083C204.03 60.7988 204.231 59.4907 204.533 57.9812V57.8806C204.615 57.3885 204.764 57.0301 204.925 56.6419L204.925 56.6417L204.925 56.6409L204.925 56.64C204.962 56.5525 204.999 56.4636 205.035 56.3712C205.035 56.3209 205.061 56.2957 205.086 56.2706C205.111 56.2454 205.136 56.2203 205.136 56.1699C205.438 58.0819 206.141 59.8932 207.247 61.5032C207.649 62.2076 208.051 62.912 208.353 63.6164C208.654 64.3208 208.956 65.7296 208.554 67.2391C207.951 69.2516 207.85 70.8617 207.85 71.4654C207.879 71.5799 207.899 71.8002 207.925 72.0823C207.991 72.7921 208.093 73.8934 208.453 74.6856ZM248.258 33.7298C248.302 33.7115 248.346 33.6922 248.39 33.6719C248.349 33.6872 248.307 33.7056 248.258 33.7298ZM207.347 67.6415C206.443 70.0566 207.046 73.1761 207.448 74.4843C206.744 74.3836 206.041 74.283 205.438 74.0817C204.231 73.6792 203.427 72.9748 203.93 71.8679C204.231 70.6604 205.84 67.5409 207.85 64.2202C207.95 64.9246 207.95 66.1321 207.347 67.6415ZM239.111 53.654C238.81 54.0565 238.508 54.459 238.106 54.8616C237.677 55.2913 237.101 56.0146 236.441 56.8435C236.328 56.9851 236.213 57.1298 236.096 57.2766C234.192 59.7843 233.886 62.692 233.685 64.6042L233.683 64.6225C234.99 66.4338 235.794 68.0439 235.995 68.9495C236.016 69.0125 236.037 69.0711 236.057 69.1271L236.057 69.1272C236.133 69.3398 236.196 69.5157 236.196 69.7546V70.5596C236.146 70.7105 236.121 70.8363 236.096 70.9621C236.07 71.0879 236.045 71.2137 235.995 71.3646C235.895 71.7671 235.794 72.2703 235.895 72.6728C235.995 73.1759 236.297 73.5784 236.598 73.8803C237.201 74.5847 238.005 75.0879 238.81 75.2891C239.815 75.6916 240.92 75.7923 242.026 75.7923C242.73 75.7923 243.433 75.6916 244.036 75.2891C244.338 75.0879 244.539 74.8866 244.64 74.5847C244.74 74.2828 244.74 73.981 244.74 73.6791V73.5784C244.539 72.874 244.439 72.069 244.439 71.3646C244.439 70.7608 244.439 70.0564 244.539 69.4527C244.74 68.3458 244.64 67.0376 244.338 65.9307C243.936 64.6225 243.333 63.415 242.529 62.4087C242.166 61.7734 241.722 61.2199 241.343 60.7483C241.302 60.6971 241.261 60.6467 241.222 60.5974L240.92 60.2955L240.813 60.1538C238.977 57.7371 238.125 56.6156 239.111 53.654ZM253.586 9.67974C253.385 9.78037 253.284 9.98162 253.385 10.1829C253.385 10.3841 253.586 10.4848 253.887 10.3841L255.496 9.78037C255.697 9.67974 255.797 9.47848 255.697 9.27722C255.596 9.07597 255.395 8.97534 255.194 9.07597L253.586 9.67974ZM252.279 12.4971C252.279 12.2959 252.38 12.0946 252.581 12.0946L255.194 11.6921C255.395 11.6921 255.596 11.7927 255.596 11.994C255.596 12.1952 255.496 12.3965 255.295 12.3965L252.681 12.799C252.581 12.799 252.38 12.6984 252.279 12.4971Z" fill="#333945"/>
</svg>
