<svg width="576" height="333" viewBox="0 0 576 333" fill="none" xmlns="http://www.w3.org/2000/svg">
<path opacity="0.12" fill-rule="evenodd" clip-rule="evenodd" d="M61.1986 72.6019C99.0969 43.4348 160.897 40.9803 214.542 27.9832C261.623 16.5765 306.233 -3.93449 355.334 1.33943C405.189 6.69436 443.19 31.9842 478.715 56.3579C515.521 81.6104 549.903 108.888 562.653 143.581C576.664 181.704 585.245 225.873 553.114 258.79C521.458 291.22 455.964 294.196 402.555 307.594C354.696 319.6 308.927 332.998 258.132 332.786C197.887 332.535 133.333 331.91 86.5035 306.276C36.5818 278.949 5.9717 235.988 1.22505 192.155C-3.42149 149.248 19.1881 104.934 61.1986 72.6019Z" fill="url(#paint0_linear_4204_39079)"/>
<defs>
<linearGradient id="paint0_linear_4204_39079" x1="-2" y1="5.55469" x2="291.962" y2="498.208" gradientUnits="userSpaceOnUse">
<stop stop-color="#A0CA3F"/>
<stop offset="1" stop-color="#7B9C30"/>
</linearGradient>
</defs>
</svg>
