<svg width="56" height="56" viewBox="0 0 56 56" fill="none" xmlns="http://www.w3.org/2000/svg">
<path fill-rule="evenodd" clip-rule="evenodd" d="M18.2188 8.40625C18.2188 5.97275 20.1915 4 22.625 4C25.0585 4 27.0312 5.97275 27.0312 8.40625V12.0161C32.6771 13.7894 36.8539 18.8801 37.2771 25.0037C29.3621 25.18 23 31.6514 23 39.6087C23 41.4783 23.3512 43.2659 23.9913 44.9091C23.5611 45.0492 23.1019 45.125 22.625 45.125C20.1915 45.125 18.2188 43.1523 18.2188 40.7188H7.9375C6.31516 40.7188 5 39.4036 5 37.7812C5 36.1589 6.31516 34.8438 7.9375 34.8438V26.0312C7.9375 19.4547 12.2599 13.8877 18.2188 12.0161V8.40625Z" fill="#81A332"/>
<path fill-rule="evenodd" clip-rule="evenodd" d="M37.7826 52.5652C44.8422 52.5652 50.5652 46.8422 50.5652 39.7826C50.5652 32.723 44.8422 27 37.7826 27C30.723 27 25 32.723 25 39.7826C25 46.8422 30.723 52.5652 37.7826 52.5652ZM43.1088 38.3069L39.258 34.4562L31.6966 42.018C31.486 42.2287 31.3339 42.4907 31.2556 42.7781L30.194 46.6705C30.0778 47.0965 30.4687 47.4873 30.8947 47.3712L34.7871 46.3096C35.0745 46.2312 35.3365 46.0792 35.5472 45.8685L43.1088 38.3069ZM44.6535 36.7622C45.7168 35.6989 45.7168 33.975 44.6535 32.9117C43.5902 31.8484 41.8663 31.8484 40.803 32.9117L40.0646 33.6496L43.9153 37.4996L44.6535 36.7622Z" fill="#941759"/>
</svg>
