<svg width="56" height="56" viewBox="0 0 56 56" fill="none" xmlns="http://www.w3.org/2000/svg">
<path fill-rule="evenodd" clip-rule="evenodd" d="M19.25 24.5C19.25 23.5335 20.0335 22.75 21 22.75H35C35.9665 22.75 36.75 23.5335 36.75 24.5C36.75 25.4665 35.9665 26.25 35 26.25H21C20.0335 26.25 19.25 25.4665 19.25 24.5Z" fill="#81A332"/>
<path fill-rule="evenodd" clip-rule="evenodd" d="M19.25 31.5C19.25 30.5335 20.0335 29.75 21 29.75H35C35.9665 29.75 36.75 30.5335 36.75 31.5C36.75 32.4665 35.9665 33.25 35 33.25H21C20.0335 33.25 19.25 32.4665 19.25 31.5Z" fill="#81A332"/>
<path fill-rule="evenodd" clip-rule="evenodd" d="M19.25 38.5C19.25 37.5335 20.0335 36.75 21 36.75H35C35.9665 36.75 36.75 37.5335 36.75 38.5C36.75 39.4665 35.9665 40.25 35 40.25H21C20.0335 40.25 19.25 39.4665 19.25 38.5Z" fill="#81A332"/>
<path fill-rule="evenodd" clip-rule="evenodd" d="M38.5 54.25C44.299 54.25 49 49.549 49 43.75C49 37.951 44.299 33.25 38.5 33.25C32.701 33.25 28 37.951 28 43.75C28 49.549 32.701 54.25 38.5 54.25ZM36.75 37.75C36.75 37.1977 37.1977 36.75 37.75 36.75H39.25C39.8023 36.75 40.25 37.1977 40.25 37.75V45.5H43.75L38.5 50.75L33.25 45.5H36.75V37.75Z" fill="#941759"/>
<path fill-rule="evenodd" clip-rule="evenodd" d="M12.25 8.75C12.25 6.817 13.817 5.25 15.75 5.25H32.2032L43.75 16.3157V32.9768C42.6577 32.5055 41.4815 32.1918 40.25 32.0643V18.8125H33.25C31.317 18.8125 29.75 17.2455 29.75 15.3125V8.75L15.75 8.75V45.5H27.0928C27.2468 46.7347 27.5884 47.9112 28.0881 49H15.75C13.817 49 12.25 47.433 12.25 45.5V8.75Z" fill="#81A332"/>
</svg>
