<svg width="56" height="56" viewBox="0 0 56 56" fill="none" xmlns="http://www.w3.org/2000/svg">
<path fill-rule="evenodd" clip-rule="evenodd" d="M23 11.5C23 9.01472 25.0147 7 27.5 7C29.9853 7 32 9.01472 32 11.5V15.0064C37.975 16.8683 42.3125 22.4432 42.3125 29.0312V37.5V37.8438C43.9348 37.8438 45.25 39.1589 45.25 40.7812C45.25 42.4036 43.9348 43.7188 42.3125 43.7188H12.9375C11.3152 43.7188 10 42.4036 10 40.7812C10 39.1589 11.3152 37.8438 12.9375 37.8438V37.5V29.0312C12.9375 22.5355 17.1544 17.0246 23 15.0868V11.5ZM37.3125 37.5V29.0312C37.3125 23.681 32.9753 19.3438 27.625 19.3438C22.2747 19.3438 17.9375 23.681 17.9375 29.0312V37.5H27.625H37.3125Z" fill="#81A332"/>
<path fill-rule="evenodd" clip-rule="evenodd" d="M23.0002 45V46.2812C23.0002 48.7148 24.973 50.6875 27.4065 50.6875C29.84 50.6875 31.8127 48.7148 31.8127 46.2812V45H23.0002Z" fill="#941759"/>
</svg>
