<svg width="56" height="56" viewBox="0 0 56 56" fill="none" xmlns="http://www.w3.org/2000/svg">
<path fill-rule="evenodd" clip-rule="evenodd" d="M27.5 3.5C15.902 3.5 6.5 12.902 6.5 24.5C6.5 35.6617 15.2077 44.7893 26.2009 45.4605L27.0142 45.5101L26.6901 44.7625C26.2779 43.8118 25.9646 42.8082 25.7632 41.7648L25.6945 41.4092L25.3353 41.3635C16.9688 40.3006 10.5 33.1553 10.5 24.5C10.5 15.1112 18.1112 7.5 27.5 7.5C36.8888 7.5 44.5 15.1112 44.5 24.5C44.5 24.6144 44.4989 24.7286 44.4966 24.8424L44.4895 25.2035L44.83 25.3238C45.8281 25.6763 46.7762 26.135 47.6608 26.6865L48.3542 27.1189L48.4235 26.3047C48.4742 25.7097 48.5 25.1078 48.5 24.5C48.5 12.902 39.098 3.5 27.5 3.5ZM22.6001 12.8001C21.9373 11.9164 20.6837 11.7373 19.8001 12.4001C18.9164 13.0628 18.7373 14.3164 19.4001 15.2001L26.0932 24.1243L22.2851 30.4711C21.7168 31.4183 22.0239 32.6468 22.9711 33.2151C23.9183 33.7834 25.1468 33.4762 25.7151 32.5291L30.907 23.8759L22.6001 12.8001Z" fill="#81A332"/>
<path fill-rule="evenodd" clip-rule="evenodd" d="M40.7826 53.5652C47.8422 53.5652 53.5652 47.8422 53.5652 40.7826C53.5652 33.723 47.8422 28 40.7826 28C33.723 28 28 33.723 28 40.7826C28 47.8422 33.723 53.5652 40.7826 53.5652ZM39.8984 46L39.9922 42.8438H38.2422V44.2578H35.0781C35.125 43.9245 35.2812 43.5391 35.5469 43.1016C35.8125 42.6641 36.4661 42.0729 37.5078 41.3281C38.2005 40.8333 38.6823 40.4557 38.9531 40.1953C39.2292 39.9297 39.4557 39.6042 39.6328 39.2188C39.8151 38.8281 39.9062 38.4036 39.9062 37.9453C39.9062 37.0911 39.6094 36.3776 39.0156 35.8047C38.4271 35.2318 37.6146 34.9453 36.5781 34.9453C35.9479 34.9453 35.3646 35.0651 34.8281 35.3047C34.2917 35.5443 33.8672 35.9297 33.5547 36.4609C33.2422 36.9922 33.0859 37.7812 33.0859 38.8281L35.0781 38.9219C35.1094 38.1146 35.2266 37.5339 35.4297 37.1797C35.638 36.8203 35.9583 36.6406 36.3906 36.6406C36.6875 36.6406 36.9349 36.75 37.1328 36.9688C37.3307 37.1823 37.4297 37.4557 37.4297 37.7891C37.4297 38.237 37.2969 38.6406 37.0312 39C36.7708 39.3542 36.2266 39.9115 35.3984 40.6719C34.7682 41.2552 34.276 41.7917 33.9219 42.2812C33.5729 42.7708 33.3203 43.276 33.1641 43.7969C33.013 44.3177 32.9375 45.0521 32.9375 46H39.8984ZM49.0469 46V44.4062H48.1328V43.0078H49.1875V41.5234H48.1328V34.9453H45.9922L41.3203 41.6172C41.5182 41.987 41.7109 42.4505 41.8984 43.0078H45.8906V44.4062H44.6875V46H49.0469ZM45.8906 37.7344V41.5234H43.1875L45.8906 37.7344Z" fill="#941759"/>
</svg>
