<svg width="56" height="56" viewBox="0 0 56 56" fill="none" xmlns="http://www.w3.org/2000/svg">
<path fill-rule="evenodd" clip-rule="evenodd" d="M30.5608 5.55315L29.3608 5.48535L21.7521 15.5789L14.5 25.3216V43.9394C14.5 47.0511 16.6167 48.8431 18.5571 49.7375C20.4696 50.6192 22.6499 50.8829 24.0807 50.8829H40.6969C42.9384 50.8829 44.5426 49.7002 45.5448 48.4698C46.5193 47.2732 47.063 45.8855 47.2874 44.916L47.3108 44.8146L47.3248 44.7116C47.8125 41.1208 48.8928 32.9494 49.2881 29.1533C49.564 26.503 48.5469 24.549 46.9528 23.3613C45.5133 22.2887 43.799 21.9768 42.6517 21.9768H34.7787C35.5847 19.7269 36.6386 16.6022 37.2573 13.6311C37.8313 10.8749 37.4277 8.50981 35.5456 7.02028C33.9825 5.78315 31.8709 5.62715 30.5608 5.55315ZM25.3474 18.2853L31.4772 10.1534C32.1844 10.2534 32.56 10.3962 32.753 10.5489L32.7566 10.5517C32.7897 10.5775 32.8844 10.6514 32.9478 10.9051C33.0208 11.1968 33.0545 11.7404 32.8519 12.7136C32.165 16.0118 30.9707 19.2808 30.1477 21.5321L30.1427 21.5456L30.1426 21.5459C29.8445 22.3612 29.5914 23.0537 29.4345 23.5559L28.5221 26.4768H42.6517C43.1327 26.4768 43.8134 26.6339 44.2641 26.9697C44.4337 27.0961 44.5874 27.2551 44.6923 27.4971C44.7987 27.7427 44.872 28.1132 44.8123 28.6872C44.4298 32.3606 43.3785 40.3257 42.8818 43.9877C42.7639 44.434 42.4842 45.1018 42.0557 45.6279C41.6267 46.1545 41.1951 46.3829 40.6969 46.3829H24.0807C23.0679 46.3829 21.5829 46.1773 20.4409 45.6509C19.881 45.3927 19.5235 45.1228 19.3067 44.8487C19.0982 44.5851 19 44.2934 19 43.9394V26.8126L25.3456 18.2877L25.3474 18.2853Z" fill="#81A332"/>
<path fill-rule="evenodd" clip-rule="evenodd" d="M13.25 21.5C10.0744 21.5 7.5 24.0744 7.5 27.25V44.75C7.5 47.9256 10.0744 50.5 13.25 50.5C16.4256 50.5 19 47.9256 19 44.75V27.25C19 24.0744 16.4256 21.5 13.25 21.5ZM12 27.25C12 26.5596 12.5596 26 13.25 26C13.9404 26 14.5 26.5596 14.5 27.25V44.75C14.5 45.4404 13.9404 46 13.25 46C12.5596 46 12 45.4404 12 44.75V27.25Z" fill="#941759"/>
</svg>
