<svg width="16" height="16" viewBox="0 0 16 16" fill="none" xmlns="http://www.w3.org/2000/svg">
<path fill-rule="evenodd" clip-rule="evenodd" d="M8 16C12.4183 16 16 12.4183 16 8C16 3.58172 12.4183 0 8 0C3.58172 0 0 3.58172 0 8C0 12.4183 3.58172 16 8 16ZM13.3983 5.52502C13.7151 5.17898 13.6503 4.63214 13.2612 4.36985C12.9459 4.1573 12.5226 4.20753 12.2658 4.48795L7.23713 9.97932L4.58157 8.0263C4.28481 7.80806 3.87312 7.83936 3.61278 8.09997C3.29036 8.42271 3.33097 8.95678 3.69848 9.22706L6.746 11.4683C7.1572 11.7708 7.73022 11.7146 8.07494 11.3382L13.3983 5.52502Z" fill="#81A332"/>
</svg>
