<svg width="56" height="56" viewBox="0 0 56 56" fill="none" xmlns="http://www.w3.org/2000/svg">
<path d="M4 24V21H7L4 24Z" fill="#941759"/>
<path fill-rule="evenodd" clip-rule="evenodd" d="M3.5 10.5C3.5 9.5335 4.2835 8.75 5.25 8.75H36.75C37.7165 8.75 38.5 9.5335 38.5 10.5V21H31.5H21H10.5C9.5335 21 8.75 21.7835 8.75 22.75C8.75 23.7165 9.5335 24.5 10.5 24.5H21V28H10.5C9.5335 28 8.75 28.7835 8.75 29.75C8.75 30.7165 9.5335 31.5 10.5 31.5H21V36.75H5.25C4.2835 36.75 3.5 35.9665 3.5 35V10.5ZM8.75 15.75C8.75 14.7835 9.5335 14 10.5 14H31.5C32.4665 14 33.25 14.7835 33.25 15.75C33.25 16.7165 32.4665 17.5 31.5 17.5H10.5C9.5335 17.5 8.75 16.7165 8.75 15.75Z" fill="#941759"/>
<path d="M47.25 49V43.75H42L47.25 49Z" fill="#81A332"/>
<path fill-rule="evenodd" clip-rule="evenodd" d="M19.25 15.75C18.2835 15.75 17.5 16.5335 17.5 17.5V42C17.5 42.9665 18.2835 43.75 19.25 43.75H50.75C51.7165 43.75 52.5 42.9665 52.5 42V17.5C52.5 16.5335 51.7165 15.75 50.75 15.75H19.25ZM24.5 35C23.5335 35 22.75 35.7835 22.75 36.75C22.75 37.7165 23.5335 38.5 24.5 38.5H45.5C46.4665 38.5 47.25 37.7165 47.25 36.75C47.25 35.7835 46.4665 35 45.5 35H24.5ZM22.75 29.75C22.75 28.7835 23.5335 28 24.5 28H45.5C46.4665 28 47.25 28.7835 47.25 29.75C47.25 30.7165 46.4665 31.5 45.5 31.5H24.5C23.5335 31.5 22.75 30.7165 22.75 29.75ZM24.5 21C23.5335 21 22.75 21.7835 22.75 22.75C22.75 23.7165 23.5335 24.5 24.5 24.5H45.5C46.4665 24.5 47.25 23.7165 47.25 22.75C47.25 21.7835 46.4665 21 45.5 21H24.5Z" fill="#81A332"/>
</svg>
