<svg width="24" height="25" viewBox="0 0 24 25" fill="none" xmlns="http://www.w3.org/2000/svg">
  <path fill-rule="evenodd" clip-rule="evenodd" d="M6.5 18.981V17.5414C6.5 15.7005 8.11929 14.5 9.5 14.5H14.5C15.8807 14.5 17.5 15.7005 17.5 17.5414V18.981C19.3354 17.4218 20.5 15.0969 20.5 12.5C20.5 7.80558 16.6944 4 12 4C7.30558 4 3.5 7.80558 3.5 12.5C3.5 15.0969 4.66459 17.4218 6.5 18.981ZM22 12.5C22 18.0228 17.5228 22.5 12 22.5C6.47715 22.5 2 18.0228 2 12.5C2 6.97715 6.47715 2.5 12 2.5C17.5228 2.5 22 6.97715 22 12.5ZM15.5 10C15.5 11.933 13.933 13.5 12 13.5C10.067 13.5 8.5 11.933 8.5 10C8.5 8.067 10.067 6.5 12 6.5C13.933 6.5 15.5 8.067 15.5 10Z" fill="white" />
</svg>