<svg width="56" height="56" fill="none" xmlns="http://www.w3.org/2000/svg"><path fill-rule="evenodd" clip-rule="evenodd" d="M19.25 24.5c0-.966.784-1.75 1.75-1.75h14a1.75 1.75 0 110 3.5H21a1.75 1.75 0 01-1.75-1.75zm0 7c0-.966.784-1.75 1.75-1.75h14a1.75 1.75 0 110 3.5H21a1.75 1.75 0 01-1.75-1.75zm0 7c0-.967.784-1.75 1.75-1.75h14a1.75 1.75 0 110 3.5H21a1.75 1.75 0 01-1.75-1.75z" fill="#81A332"/><path fill-rule="evenodd" clip-rule="evenodd" d="M38.5 54.25c5.799 0 10.5-4.701 10.5-10.5s-4.701-10.5-10.5-10.5S28 37.951 28 43.75s4.701 10.5 10.5 10.5zm-1.75-16.5a1 1 0 011-1h1.5a1 1 0 011 1v7.75h3.5l-5.25 5.25-5.25-5.25h3.5v-7.75z" fill="#941759"/><path fill-rule="evenodd" clip-rule="evenodd" d="M12.25 8.75a3.5 3.5 0 013.5-3.5h16.453L43.75 16.316v16.66a11.925 11.925 0 00-3.5-.912V18.812h-7a3.5 3.5 0 01-3.5-3.5V8.75h-14V45.5h11.343a11.92 11.92 0 00.995 3.5H15.75a3.5 3.5 0 01-3.5-3.5V8.75z" fill="#81A332"/></svg>