<svg width="56" height="56" fill="none" xmlns="http://www.w3.org/2000/svg"><path fill-rule="evenodd" clip-rule="evenodd" d="M23 11.5a4.5 4.5 0 119 0v3.506c5.975 1.862 10.313 7.437 10.313 14.025v8.813a2.937 2.937 0 110 5.875H12.936a2.938 2.938 0 010-5.875V29.03c0-6.495 4.217-12.006 10.063-13.944V11.5zm14.313 26v-8.469c0-5.35-4.338-9.687-9.688-9.687-5.35 0-9.688 4.337-9.688 9.687V37.5h19.376z" fill="#81A332"/><path fill-rule="evenodd" clip-rule="evenodd" d="M23 45v1.281a4.406 4.406 0 108.813 0V45H23z" fill="#941759"/></svg>