<svg width="56" height="56" fill="none" xmlns="http://www.w3.org/2000/svg"><path fill-rule="evenodd" clip-rule="evenodd" d="M18.219 8.406a4.406 4.406 0 118.812 0v3.61c5.646 1.773 9.823 6.864 10.246 12.988C29.362 25.18 23 31.65 23 39.609c0 1.87.351 3.657.991 5.3a4.406 4.406 0 01-5.772-4.19H7.937a2.938 2.938 0 010-5.875V26.03c0-6.576 4.323-12.143 10.282-14.015v-3.61z" fill="#81A332"/><path fill-rule="evenodd" clip-rule="evenodd" d="M37.783 52.565c7.06 0 12.782-5.723 12.782-12.782 0-7.06-5.723-12.783-12.782-12.783C30.723 27 25 32.723 25 39.783s5.723 12.782 12.783 12.782zm5.326-14.258l-3.851-3.85-7.561 7.561c-.211.21-.363.473-.441.76l-1.062 3.892a.57.57 0 00.7.701l3.893-1.061a1.7 1.7 0 00.76-.442l7.562-7.561zm1.544-1.545a2.723 2.723 0 10-3.85-3.85l-.738.738 3.85 3.85.739-.738z" fill="#941759"/></svg>