<svg width="56" height="56" fill="none" xmlns="http://www.w3.org/2000/svg"><path fill-rule="evenodd" clip-rule="evenodd" d="M27.5 3.5c-11.598 0-21 9.402-21 21 0 11.162 8.708 20.29 19.7 20.96l.814.05-.324-.747a14.387 14.387 0 01-.927-2.998l-.069-.356-.359-.045C16.97 40.3 10.5 33.154 10.5 24.5c0-9.389 7.611-17 17-17s17 7.611 17 17c0 .114-.001.229-.003.342l-.008.361.341.12a14.44 14.44 0 012.83 1.363l.694.433.07-.814c.05-.595.076-1.197.076-1.805 0-11.598-9.402-21-21-21zm-4.9 9.3a2 2 0 10-3.2 2.4l6.693 8.924-3.808 6.347a2 2 0 103.43 2.058l5.192-8.653L22.6 12.8z" fill="#81A332"/><path fill-rule="evenodd" clip-rule="evenodd" d="M40.783 53.565c7.06 0 12.782-5.723 12.782-12.782 0-7.06-5.723-12.783-12.782-12.783C33.723 28 28 33.723 28 40.783s5.723 12.782 12.783 12.782zM39.898 46l.094-3.156h-1.75v1.414h-3.164c.047-.334.203-.719.469-1.156.266-.438.92-1.03 1.96-1.774.694-.495 1.175-.872 1.446-1.133.276-.265.503-.59.68-.976.182-.39.273-.815.273-1.274 0-.854-.297-1.567-.89-2.14-.589-.573-1.401-.86-2.438-.86-.63 0-1.213.12-1.75.36a2.76 2.76 0 00-1.273 1.156c-.313.531-.47 1.32-.47 2.367l1.993.094c.031-.807.149-1.388.352-1.742.208-.36.528-.54.96-.54a.96.96 0 01.743.329c.198.213.297.487.297.82 0 .448-.133.852-.399 1.211-.26.354-.804.911-1.633 1.672-.63.583-1.122 1.12-1.476 1.61-.35.489-.602.994-.758 1.515-.151.52-.227 1.255-.227 2.203h6.961zm9.149 0v-1.594h-.914v-1.398h1.054v-1.485h-1.054v-6.578h-2.14l-4.673 6.672c.198.37.39.834.578 1.39h3.993v1.4h-1.203V46h4.359zm-3.156-8.266v3.79h-2.703l2.703-3.79z" fill="#941759"/></svg>