<svg width="56" height="56" fill="none" xmlns="http://www.w3.org/2000/svg"><path fill-rule="evenodd" clip-rule="evenodd" d="M30.56 5.553l-1.2-.068-7.608 10.094-7.252 9.743v18.617c0 3.112 2.117 4.904 4.057 5.798 1.913.882 4.093 1.146 5.524 1.146h16.616c2.241 0 3.846-1.183 4.848-2.413a9.122 9.122 0 001.742-3.554l.024-.101.014-.103c.487-3.591 1.568-11.763 1.963-15.559.276-2.65-.741-4.604-2.335-5.792-1.44-1.072-3.154-1.384-4.301-1.384h-7.873c.806-2.25 1.86-5.375 2.478-8.346.574-2.756.17-5.121-1.711-6.61-1.563-1.238-3.675-1.394-4.985-1.468zm-5.213 12.732l6.13-8.132c.707.1 1.083.243 1.276.396l.004.003c.033.026.127.1.19.353.074.292.107.835-.095 1.809-.687 3.298-1.881 6.567-2.704 8.818l-.005.014a51.197 51.197 0 00-.709 2.01l-.912 2.92h14.13c.48 0 1.161.158 1.612.494.17.126.323.285.428.527.107.246.18.616.12 1.19-.382 3.674-1.433 11.639-1.93 15.3a4.666 4.666 0 01-.826 1.64c-.43.527-.86.756-1.36.756H24.082c-1.013 0-2.498-.206-3.64-.732-.56-.258-.918-.528-1.134-.802a1.398 1.398 0 01-.307-.91V26.813l6.346-8.525.001-.003z" fill="#81A332"/><path fill-rule="evenodd" clip-rule="evenodd" d="M13.25 21.5a5.75 5.75 0 00-5.75 5.75v17.5a5.75 5.75 0 0011.5 0v-17.5a5.75 5.75 0 00-5.75-5.75zM12 27.25a1.25 1.25 0 112.5 0v17.5a1.25 1.25 0 11-2.5 0v-17.5z" fill="#941759"/></svg>