<svg width="56" height="56" fill="none" xmlns="http://www.w3.org/2000/svg"><path d="M4 24v-3h3l-3 3z" fill="#941759"/><path fill-rule="evenodd" clip-rule="evenodd" d="M3.5 10.5c0-.966.784-1.75 1.75-1.75h31.5c.967 0 1.75.784 1.75 1.75V21h-28a1.75 1.75 0 100 3.5H21V28H10.5a1.75 1.75 0 100 3.5H21v5.25H5.25A1.75 1.75 0 013.5 35V10.5zm5.25 5.25c0-.966.784-1.75 1.75-1.75h21a1.75 1.75 0 110 3.5h-21a1.75 1.75 0 01-1.75-1.75z" fill="#941759"/><path d="M47.25 49v-5.25H42L47.25 49z" fill="#81A332"/><path fill-rule="evenodd" clip-rule="evenodd" d="M19.25 15.75a1.75 1.75 0 00-1.75 1.75V42c0 .967.784 1.75 1.75 1.75h31.5A1.75 1.75 0 0052.5 42V17.5a1.75 1.75 0 00-1.75-1.75h-31.5zM24.5 35a1.75 1.75 0 100 3.5h21a1.75 1.75 0 100-3.5h-21zm-1.75-5.25c0-.966.784-1.75 1.75-1.75h21a1.75 1.75 0 110 3.5h-21a1.75 1.75 0 01-1.75-1.75zM24.5 21a1.75 1.75 0 100 3.5h21a1.75 1.75 0 100-3.5h-21z" fill="#81A332"/></svg>