<svg width="64" height="64" viewBox="0 0 64 64" fill="none" xmlns="http://www.w3.org/2000/svg">
<g clip-path="url(#clip0_4059_38202)">
<path fill-rule="evenodd" clip-rule="evenodd" d="M9.41927 27.9881C5.98653 29.6565 4.55619 33.7917 6.22452 37.2244L12.1334 49.3825C13.8017 52.8152 17.937 54.2455 21.3697 52.5772L52.9806 37.2142C56.4133 35.5458 57.8436 31.4106 56.1753 27.9779L50.2664 15.8198C48.5981 12.3871 44.4629 10.9567 41.0301 12.6251L9.41927 27.9881ZM4.06595 38.2735C1.81823 33.6486 3.74531 28.0773 8.3702 25.8296L39.9811 10.4665C44.6059 8.21879 50.1773 10.1459 52.425 14.7708L58.3339 26.9288C60.5816 31.5537 58.6545 37.125 54.0296 39.3727L22.4188 54.7358C17.7939 56.9835 12.2225 55.0564 9.97482 50.4315L4.06595 38.2735Z" fill="#941759"/>
<path fill-rule="evenodd" clip-rule="evenodd" d="M18.7367 42.0089C17.9899 42.3719 17.6787 43.2716 18.0416 44.0185L19.2234 46.4501C19.5864 47.1969 20.4861 47.5081 21.233 47.1451L26.0962 44.7816C26.843 44.4186 27.1542 43.5189 26.7913 42.772L25.6095 40.3404C25.2465 39.5936 24.3468 39.2824 23.5999 39.6454L18.7367 42.0089ZM15.8831 45.0675C14.9407 43.1285 15.7486 40.7927 17.6876 39.8503L22.5509 37.4868C24.4899 36.5444 26.8257 37.3524 27.7681 39.2914L28.9498 41.723C29.8922 43.662 29.0843 45.9978 27.1453 46.9402L22.282 49.3037C20.343 50.2461 18.0072 49.4381 17.0648 47.4991L15.8831 45.0675Z" fill="#941759"/>
<path fill-rule="evenodd" clip-rule="evenodd" d="M50.9617 15.5522L5.36151 37.7124L4.3125 35.5538L49.9127 13.3936L50.9617 15.5522Z" fill="#941759"/>
<path fill-rule="evenodd" clip-rule="evenodd" d="M53.1879 20.1216L7.57863 42.2818L6.52979 40.1231L52.139 17.9629L53.1879 20.1216Z" fill="#941759"/>
<path fill-rule="evenodd" clip-rule="evenodd" d="M40.3815 31.1673C40.6775 31.7603 40.4367 32.4809 39.8437 32.7769L32.4759 36.4541C31.8829 36.7501 31.1623 36.5093 30.8663 35.9163C30.5704 35.3233 30.8111 34.6027 31.4041 34.3067L38.7719 30.6295C39.3649 30.3335 40.0856 30.5743 40.3815 31.1673Z" fill="#941759"/>
<path fill-rule="evenodd" clip-rule="evenodd" d="M51.1955 25.7593C51.4919 26.3521 51.2516 27.0729 50.6588 27.3693L43.4493 30.974C42.8565 31.2704 42.1357 31.0302 41.8394 30.4374C41.543 29.8446 41.7832 29.1238 42.376 28.8274L49.5855 25.2227C50.1783 24.9263 50.8991 25.1665 51.1955 25.7593Z" fill="#941759"/>
<path fill-rule="evenodd" clip-rule="evenodd" d="M51.616 32.7021C51.9057 33.2982 51.6573 34.0163 51.0612 34.3059L48.3733 35.6122C47.7772 35.9019 47.0592 35.6535 46.7695 35.0574C46.4798 34.4613 46.7282 33.7433 47.3243 33.4536L50.0122 32.1473C50.6083 31.8577 51.3264 32.106 51.616 32.7021ZM45.3442 35.7501C45.6339 36.3461 45.3855 37.0642 44.7894 37.3539L41.2055 39.0955C40.6095 39.3852 39.8914 39.1368 39.6017 38.5407C39.3121 37.9447 39.5604 37.2266 40.1565 36.9369L43.7404 35.1953C44.3365 34.9056 45.0546 35.154 45.3442 35.7501ZM37.2805 39.6688C37.5702 40.2649 37.3218 40.9829 36.7257 41.2726L34.0378 42.5789C33.4417 42.8685 32.7236 42.6202 32.434 42.0241C32.1443 41.428 32.3927 40.7099 32.9888 40.4203L35.6767 39.114C36.2728 38.8243 36.9908 39.0727 37.2805 39.6688Z" fill="#941759"/>
</g>
<defs>
<clipPath id="clip0_4059_38202">
<rect width="64" height="64" fill="white"/>
</clipPath>
</defs>
</svg>
