<svg width="64" height="64" viewBox="0 0 64 64" fill="none" xmlns="http://www.w3.org/2000/svg">
<path fill-rule="evenodd" clip-rule="evenodd" d="M7.6002 31.6002C7.6002 18.3454 18.3454 7.6002 31.6002 7.6002C44.855 7.6002 55.6002 18.3454 55.6002 31.6002C55.6002 44.855 44.855 55.6002 31.6002 55.6002C18.3454 55.6002 7.6002 44.855 7.6002 31.6002ZM31.6002 5.2002C17.0199 5.2002 5.2002 17.0199 5.2002 31.6002C5.2002 46.1805 17.0199 58.0002 31.6002 58.0002C46.1805 58.0002 58.0002 46.1805 58.0002 31.6002C58.0002 17.0199 46.1805 5.2002 31.6002 5.2002ZM11.7277 31.6C11.7277 20.6247 20.6249 11.7275 31.6001 11.7275C42.5753 11.7275 51.4725 20.6247 51.4725 31.6C51.4725 42.5752 42.5753 51.4724 31.6001 51.4724C20.6249 51.4724 11.7277 42.5752 11.7277 31.6ZM31.6001 9.32754C19.2994 9.32754 9.32769 19.2992 9.32769 31.6C9.32769 43.9007 19.2994 53.8724 31.6001 53.8724C43.9008 53.8724 53.8725 43.9007 53.8725 31.6C53.8725 19.2992 43.9008 9.32754 31.6001 9.32754ZM31.6002 22.2471C32.2629 22.2471 32.8002 22.7843 32.8002 23.4471V33.8747C32.8002 34.5374 32.2629 35.0747 31.6002 35.0747C30.9375 35.0747 30.4002 34.5374 30.4002 33.8747V31.9083C30.2622 31.7976 30.1466 31.6545 30.0662 31.4837L23.1145 16.7112C22.8323 16.1116 23.0897 15.3967 23.6893 15.1145C24.289 14.8323 25.0039 15.0897 25.2861 15.6893L30.4002 26.5569V23.4471C30.4002 22.7843 30.9375 22.2471 31.6002 22.2471ZM30.8529 16.8016C31.5728 16.8016 32.1564 16.2181 32.1564 15.4982C32.1564 14.7783 31.5728 14.1947 30.8529 14.1947C30.133 14.1947 29.5495 14.7783 29.5495 15.4982C29.5495 16.2181 30.133 16.8016 30.8529 16.8016ZM32.1564 48.5189C32.1564 49.2388 31.5728 49.8223 30.8529 49.8223C30.133 49.8223 29.5495 49.2388 29.5495 48.5189C29.5495 47.799 30.133 47.2154 30.8529 47.2154C31.5728 47.2154 32.1564 47.799 32.1564 48.5189ZM48.2322 33.3122C48.9521 33.3122 49.5357 32.7286 49.5357 32.0087C49.5357 31.2888 48.9521 30.7053 48.2322 30.7053C47.5123 30.7053 46.9288 31.2888 46.9288 32.0087C46.9288 32.7286 47.5123 33.3122 48.2322 33.3122ZM16.515 32.0087C16.515 32.7286 15.9314 33.3122 15.2115 33.3122C14.4916 33.3122 13.9081 32.7286 13.9081 32.0087C13.9081 31.2888 14.4916 30.7053 15.2115 30.7053C15.9314 30.7053 16.515 31.2888 16.515 32.0087ZM18.6872 22.8844C19.4071 22.8844 19.9907 22.3009 19.9907 21.581C19.9907 20.8611 19.4071 20.2775 18.6872 20.2775C17.9673 20.2775 17.3838 20.8611 17.3838 21.581C17.3838 22.3009 17.9673 22.8844 18.6872 22.8844ZM20.8598 43.3052C20.8598 44.0251 20.2762 44.6087 19.5563 44.6087C18.8364 44.6087 18.2529 44.0251 18.2529 43.3052C18.2529 42.5853 18.8364 42.0018 19.5563 42.0018C20.2762 42.0018 20.8598 42.5853 20.8598 43.3052ZM43.0185 44.6087C43.7383 44.6087 44.3219 44.0251 44.3219 43.3052C44.3219 42.5853 43.7383 42.0018 43.0185 42.0018C42.2986 42.0018 41.715 42.5853 41.715 43.3052C41.715 44.0251 42.2986 44.6087 43.0185 44.6087ZM46.0598 21.581C46.0598 22.3009 45.4762 22.8844 44.7563 22.8844C44.0364 22.8844 43.4529 22.3009 43.4529 21.581C43.4529 20.8611 44.0364 20.2775 44.7563 20.2775C45.4762 20.2775 46.0598 20.8611 46.0598 21.581Z" fill="#941759"/>
</svg>
