<svg width="64" height="64" viewBox="0 0 64 64" fill="none" xmlns="http://www.w3.org/2000/svg">
<path fill-rule="evenodd" clip-rule="evenodd" d="M27.1998 6.7998C23.8861 6.7998 21.1998 9.4861 21.1998 12.7998V21.5998C21.1998 21.6222 21.2004 21.6444 21.2016 21.6665C15.5644 23.1614 11.3228 28.0851 10.8448 34.0697C9.64674 34.2238 8.75725 34.6253 8.10592 35.2C7.29562 35.9149 7.0103 36.7727 6.87041 37.1932L6.86138 37.2203C6.8206 37.3427 6.7998 37.4708 6.7998 37.5998V42.3998C6.7998 43.1082 7.13126 43.6884 7.49772 44.1061C7.86677 44.5268 8.34132 44.8671 8.82156 45.1313C9.76941 45.6526 10.9667 45.9998 11.9999 45.9998C12.6626 45.9998 13.1999 45.4625 13.1999 44.7998V35.1998L13.1998 35.1862C13.2002 34.8511 13.2148 34.5193 13.243 34.1915C13.9432 34.3617 14.7607 34.4693 15.615 34.5227C16.889 34.6023 18.3391 34.5667 19.7844 34.3913C21.2262 34.2163 22.6984 33.898 24.0022 33.3944C25.2914 32.8965 26.5124 32.1802 27.3369 31.1496C27.4428 31.0172 27.5425 30.8878 27.6363 30.7616C27.8378 31.1178 28.0704 31.4438 28.3317 31.7405C29.1282 32.6452 30.1305 33.2099 31.1552 33.5567C32.9235 34.1551 34.8848 34.1444 36.3427 34.0412C36.38 34.4179 36.3994 34.7999 36.3998 35.1863L36.3997 35.1998V43.2449C36.3806 48.2631 33.1751 52.5299 28.7013 54.1274C28.2902 53.7973 27.7681 53.5998 27.1998 53.5998H23.9998C22.6743 53.5998 21.5998 54.6743 21.5998 55.9998C21.5998 57.3253 22.6743 58.3998 23.9998 58.3998H27.1998C28.401 58.3998 29.3961 57.5173 29.5721 56.3653C34.1287 54.7133 37.5838 50.763 38.5366 45.9153C39.311 45.7821 40.107 45.5003 40.7781 45.1313C41.2583 44.8671 41.7328 44.5268 42.1019 44.1061C42.4683 43.6884 42.7998 43.1082 42.7998 42.3998V37.5998C42.7998 37.4708 42.779 37.3427 42.7382 37.2203L42.7292 37.1932C42.5893 36.7727 42.304 35.9149 41.4937 35.2C40.8424 34.6253 39.9529 34.2238 38.7549 34.0697C38.6765 33.0889 38.4971 32.1367 38.227 31.2233H45.4846C46.4473 31.2233 47.3699 31.6089 48.0463 32.294L50.9274 35.2119C52.562 36.8674 55.3816 35.7099 55.3816 33.3835V31.6854C55.3816 30.9624 55.9677 30.3763 56.6907 30.3763C58.7392 30.3763 60.3998 28.7157 60.3998 26.6672V12.7998C60.3998 9.4861 57.7135 6.7998 54.3998 6.7998H27.1998ZM35.852 31.6671C34.3577 26.9881 29.9744 23.5998 24.7998 23.5998C19.5649 23.5998 15.14 27.0674 13.6966 31.8309C14.204 31.9646 14.9083 32.0739 15.7647 32.1274C16.8906 32.1978 18.1938 32.1667 19.4953 32.0088C20.8001 31.8504 22.0679 31.5687 23.1375 31.1556C24.2216 30.7369 25.0072 30.2198 25.4628 29.6504C26.1859 28.7465 26.5358 28.0394 26.7032 27.6626C26.7379 27.5846 26.7644 27.5217 26.7896 27.462L26.7897 27.4617L26.8105 27.4124C26.8242 27.3799 26.8441 27.3334 26.8648 27.2893L26.8658 27.287C26.8753 27.2662 26.9358 27.134 27.0379 27.0065L27.0406 27.003C27.0732 26.9613 27.2969 26.6756 27.7151 26.5798C27.9935 26.516 28.3011 26.5505 28.5738 26.7036C28.8151 26.839 28.9491 27.0221 29.0138 27.1282C29.13 27.3187 29.1638 27.4964 29.1719 27.5391L29.1724 27.5416C29.1854 27.6096 29.1906 27.6668 29.193 27.6976C29.1985 27.7673 29.1996 27.8528 29.1998 27.9222C29.3404 28.9533 29.6945 29.6565 30.133 30.1546C30.5881 30.6715 31.1959 31.0368 31.9245 31.2834C33.1444 31.6962 34.5794 31.7372 35.852 31.6671ZM37.2736 28.8369C37.3326 28.8279 37.3929 28.8233 37.4543 28.8233H45.4846C47.0891 28.8233 48.6268 29.466 49.7541 30.6077L52.6352 33.5257C52.679 33.57 52.7134 33.5816 52.7382 33.5861C52.7696 33.5916 52.8115 33.589 52.8561 33.5707C52.9006 33.5524 52.9324 33.5248 52.9508 33.4988C52.9653 33.4783 52.9816 33.4458 52.9816 33.3835V31.6854C52.9816 29.6369 54.6422 27.9763 56.6907 27.9763C57.4137 27.9763 57.9998 27.3902 57.9998 26.6672V12.7998C57.9998 10.8116 56.388 9.1998 54.3998 9.1998H27.1998C25.2116 9.1998 23.5998 10.8116 23.5998 12.7998V21.2505C23.9953 21.2169 24.3956 21.1998 24.7998 21.1998C30.2406 21.1998 34.9565 24.3034 37.2736 28.8369ZM38.7998 43.1998L38.7997 43.2494V43.3817C39.0812 43.2896 39.3632 43.1704 39.6215 43.0283C39.9413 42.8525 40.1667 42.6728 40.2977 42.5235C40.3671 42.4443 40.392 42.3956 40.3998 42.3766V37.801C40.2888 37.4906 40.1629 37.2265 39.9058 36.9996C39.7185 36.8344 39.3908 36.6303 38.7997 36.5079V43.1998H38.7998ZM9.1998 42.3766V37.801C9.31082 37.4906 9.43668 37.2265 9.69378 36.9996C9.88106 36.8344 10.2088 36.6303 10.7999 36.5079V43.3817C10.5184 43.2896 10.2364 43.1704 9.97814 43.0283C9.65835 42.8525 9.43288 42.6728 9.30192 42.5235C9.2325 42.4443 9.20765 42.3956 9.1998 42.3766ZM21.1057 45.9338C20.8524 45.3322 20.1627 45.0421 19.5542 45.2856C18.9388 45.5317 18.6395 46.2301 18.8857 46.8454L19.9998 46.3997C18.8857 46.8454 18.886 46.8462 18.8863 46.8469L18.8869 46.8485L18.8883 46.8519L18.8913 46.8593L18.8986 46.8767C18.9041 46.8896 18.9107 46.9048 18.9186 46.9221C18.9344 46.9569 18.9551 47.0005 18.9814 47.0517C19.034 47.1539 19.1091 47.287 19.2114 47.4404C19.4158 47.747 19.7305 48.1374 20.1916 48.5216C21.1329 49.306 22.6065 49.9997 24.7998 49.9997C26.9931 49.9997 28.4667 49.306 29.4081 48.5216C29.8691 48.1374 30.1839 47.747 30.3883 47.4404C30.4905 47.287 30.5657 47.1539 30.6182 47.0517C30.6445 47.0005 30.6653 46.9569 30.681 46.9221C30.6889 46.9048 30.6956 46.8896 30.701 46.8767L30.7084 46.8593L30.7114 46.8519L30.7127 46.8485L30.7134 46.8469C30.7137 46.8462 30.714 46.8454 29.5998 46.3997L30.714 46.8454C30.9601 46.2301 30.6608 45.5317 30.0455 45.2856C29.437 45.0421 28.7472 45.3322 28.494 45.9338L28.4921 45.9376L28.4839 45.954C28.469 45.9831 28.4391 46.0374 28.3914 46.1091C28.2958 46.2525 28.1305 46.4621 27.8716 46.6779C27.3729 47.0934 26.4465 47.5997 24.7998 47.5997C23.1531 47.5997 22.2267 47.0934 21.7281 46.6779C21.4691 46.4621 21.3039 46.2525 21.2083 46.1091C21.1605 46.0374 21.1307 45.9831 21.1157 45.954C21.1106 45.9441 21.1073 45.9372 21.1057 45.9338ZM43.5998 15.9998C43.5998 15.3371 44.1371 14.7998 44.7998 14.7998L52.7998 14.7998C53.4625 14.7998 53.9998 15.3371 53.9998 15.9998C53.9998 16.6625 53.4625 17.1998 52.7998 17.1998L44.7998 17.1998C44.1371 17.1998 43.5998 16.6625 43.5998 15.9998ZM28.7998 17.1998H39.9998C40.6625 17.1998 41.1998 16.6625 41.1998 15.9998C41.1998 15.3371 40.6625 14.7998 39.9998 14.7998H28.7998C28.1371 14.7998 27.5998 15.3371 27.5998 15.9998C27.5998 16.6625 28.1371 17.1998 28.7998 17.1998ZM37.1998 22.3998C37.1998 21.7371 37.7371 21.1998 38.3998 21.1998L52.7998 21.1998C53.4625 21.1998 53.9998 21.7371 53.9998 22.3998C53.9998 23.0625 53.4625 23.5998 52.7998 23.5998L38.3998 23.5998C37.7371 23.5998 37.1998 23.0625 37.1998 22.3998ZM20.7998 39.9998C21.6835 39.9998 22.3998 39.2835 22.3998 38.3998C22.3998 37.5161 21.6835 36.7998 20.7998 36.7998C19.9161 36.7998 19.1998 37.5161 19.1998 38.3998C19.1998 39.2835 19.9161 39.9998 20.7998 39.9998ZM30.3998 38.3998C30.3998 39.2835 29.6835 39.9998 28.7998 39.9998C27.9162 39.9998 27.1998 39.2835 27.1998 38.3998C27.1998 37.5161 27.9162 36.7998 28.7998 36.7998C29.6835 36.7998 30.3998 37.5161 30.3998 38.3998Z" fill="#941759"/>
</svg>
