<svg width="73" height="66" fill="none" xmlns="http://www.w3.org/2000/svg"><path d="M34 46.841H21.013L17 35l-4.012 11.841H0l10.507 7.32L6.493 66 17 58.681 27.507 66l-4.014-11.84L34 46.841zm0-35H21.013L17 0l-4.012 11.841H0l10.507 7.32L6.493 31 17 23.681 27.507 31l-4.014-11.84L34 11.841zm39 0H60.013L56 0l-4.012 11.841H39l10.507 7.32L45.493 31 56 23.681 66.507 31l-4.014-11.84L73 11.841zm0 35H60.013L56 35l-4.012 11.841H39l10.507 7.32L45.493 66 56 58.681 66.507 66l-4.014-11.84L73 46.841z" fill="#FB6F70"/></svg>