<svg width="120" height="70" fill="none" xmlns="http://www.w3.org/2000/svg"><path d="M78 50.223H64.25L60 38l-4.248 12.223H42l11.125 7.555L48.875 70 60 62.445 71.125 70l-4.25-12.222L78 50.223zm-41 0H22.867L18.5 38l-4.366 12.223H0l11.434 7.555L7.066 70 18.5 62.445 29.934 70l-4.368-12.222L37 50.223zm18-38H41.25L37 0l-4.248 12.223H19l11.125 7.555L25.875 32 37 24.445 48.125 32l-4.25-12.222L55 12.223zm41 0H82.25L78 0l-4.248 12.223H60l11.125 7.555L66.875 32 78 24.445 89.125 32l-4.25-12.222L96 12.223zm24 38h-14.133L101.5 38l-4.366 12.223H83l11.434 7.555L90.066 70l11.434-7.555L112.934 70l-4.368-12.222L120 50.223z" fill="#FB6F70"/></svg>