<svg width="272" height="77" fill="none" xmlns="http://www.w3.org/2000/svg"><path d="M13.067 60.718c-1.014-.936-2.378-1.928-3.917-1.928-1.815 0-2.252 1.088-2.252 1.864 0 1.303 1.483 1.68 2.562 1.927 3.171.744 6.716 2.143 6.716 7.27 0 4.318-3.053 7.149-8.104 7.149-2.775 0-4.964-.936-8.072-3.48l2.862-4.63c1.697 1.647 3.577 2.887 5.36 2.887 1.11 0 2.126-.528 2.126-1.832 0-1.99-1.848-2.239-4.131-2.95-1.73-.528-5.147-1.744-5.147-6.398 0-3.511 2.53-6.558 7.58-6.558 2.358.002 4.655.752 6.566 2.143l-2.149 4.535zm11.434-6.094h7.335l7.675 21.76h-6.47l-1.205-3.758H24.5l-1.205 3.758h-6.47l7.675-21.76zm1.206 13.211h4.932l-2.466-7.997-2.466 7.997zm37.163-4.078C63.3 68.883 61.857 77 52.15 77c-6.565 0-11.893-4-11.893-11.348C40.257 58.534 44.784 54 51.69 54c6.748 0 9.246 3.855 10.015 5.286l-5.328 2.52a4.924 4.924 0 00-1.896-1.948 4.865 4.865 0 00-2.632-.636c-2.839 0-5.55 2.023-5.55 6.31 0 4.286 2.68 6.686 5.764 6.686a4.644 4.644 0 003.069-.95 4.715 4.715 0 001.736-2.721h-5.582v-4.798l11.585.008zm2.99-9.133h12.948v5.222h-6.906v3.047h6.256v4.798h-6.256v3.48h6.906v5.221H65.86V54.624zm17.817 0h6.042l3.79 13.275 3.79-13.275h6.042l3.172 21.76h-5.812l-1.586-12.62-3.64 12.62H91.59l-3.64-12.62-1.585 12.62h-5.796l3.108-21.76zm30.694 0h7.335l7.675 21.76h-6.478l-1.205-3.758h-7.335l-1.205 3.758h-6.47l7.683-21.76zm1.205 13.211h4.948l-2.466-7.997-2.482 7.997zm15.533-13.211h6.067v21.76h-6.043l-.024-21.76zm9.928 0h6.042v16.53h6.47v5.222h-12.512V54.624zm14.884 0h12.972v5.222h-6.906v3.047h6.256v4.798h-6.256v3.48h6.906v5.221h-12.972V54.624zm16.143 0H181c7.208 0 7.453 5.534 7.453 6.526a6.436 6.436 0 01-1.121 4.052 6.344 6.344 0 01-3.375 2.473L190 76.376h-7.303l-4.559-7.197v7.197h-6.074V54.624zm7.516 9.788c2.157 0 2.839-1.239 2.839-2.519s-.674-2.487-2.839-2.487h-1.482v5.006h1.482z" fill="#333945"/><path fill-rule="evenodd" clip-rule="evenodd" d="M256.3 4.648c-.101-.503.201-1.006.704-1.207L268.563.019c.503-.1 1.005.202 1.206.705l2.212 7.748c.1.503-.201 1.006-.704 1.208l-11.559 3.42c-.503.1-1.006-.201-1.207-.704L256.3 4.648zm1.106-.1c.201-.202.502-.302.703-.202l6.333 3.12 3.619-6.038c.201-.201.502-.302.603-.1a.532.532 0 01.201.704l-3.921 6.34c-.1.2-.402.301-.603.2l-6.734-3.32c-.201-.201-.302-.503-.201-.704zm-6.333 4.628c-.101-.2-.101-.402.1-.503l2.212-1.308c.201-.1.402 0 .502.201.101.202.101.403-.1.504l-2.212 1.308c-.201 0-.402 0-.502-.202zm-42.62 65.51c0 .05.025.1.05.15.026.05.051.101.051.151.16.402.384.61.621.832a6 6 0 01.183.175c.402.302.804.503 1.307.704l.301.1c.804.101 1.608.202 2.413.202.904 0 1.809 0 2.613-.201 1.608-.202 2.111-.705 2.01-1.61a4.566 4.566 0 00-1.105-1.912c-.603-.705-.905-1.51-1.006-2.415 0-1.007.302-1.912.805-2.818.703-1.006 1.306-2.012 1.909-3.019 1.006-1.61 1.006-4.93.101-8.754 0-.101 2.412 2.616 1.809 7.748a6.9 6.9 0 011.142-.4l.366-.103.416-.094c.742-.168 1.434-.324 2.198-.41v.303c-.302 2.817-.402 5.635-.201 8.452-.101 1.107.1 2.315.603 3.321.502 1.006 1.407 1.51 3.015 1.61l.804.1.413.025h.001c1.835.111 4.556.276 5.115-1.03.1-.202.1-.403.1-.705 0-.201 0-.402-.1-.704a3.626 3.626 0 00-.804-1.208 8.85 8.85 0 01-.603-1.006l-.052-.2c-.08-.31-.149-.574-.149-.907-.101-2.717 0-5.333.301-8.05.201-3.925 2.01-6.24 4.021-8.755l.12-.15c1.578-1.974 3.328-4.162 4.504-7.498 0-.05.025-.1.05-.15.025-.051.05-.101.05-.152l.402-.402c2.714-2.214 5.83-5.434 6.132-8.252 0-.704.301-1.308.704-1.811.603-.805 1.306-1.409 2.11-1.912l.503-.302c.062 0 .086-.038.119-.091a.566.566 0 01.082-.11v-.201c0-.101-.1-.202-.1-.202-.101-.1-.101-.1-.202-.1h-.1c-.804 0-1.91.302-2.614.604a5.168 5.168 0 01-.274.082c-.072.02-.133.037-.197.06 1.168-.538 2.4-1.77 2.884-2.256 1.407-1.51 1.91-3.823 1.91-6.037-.101-2.415-.905-4.83-2.212-6.843-.301-.503-.603-1.006-.904-1.61a23.05 23.05 0 00-.905-1.61c-.201-.503-.302-.805-.201-1.006.101-.202.402-.403.905-.403h.201c.1 0 .201-.1.201-.1s.1-.202.1-.302v-.202c0-.604-.1-1.107-.301-1.71a4.222 4.222 0 00-.905-1.41l-.201-.2h-.302c-.603 0-1.206.2-1.809.402-.804.302-1.508.805-1.91 1.51-.402.804-.603 1.61-.502 2.515.08.48.223.897.38 1.352l.122.359c.101.201.201.402.201.604 1.006 1.912 2.212 4.83 2.312 7.044.201 1.912-.703 3.32-3.92 3.723l-.804.1c-.575.075-1.157.132-1.731.188h-.001c-2.54.25-4.942.486-6.008 2.127-.05.05-.075.1-.101.15a.53.53 0 01-.1.152c1.005.302 2.211 1.207 2.915 2.516-.905-1.208-2.412-1.912-3.116-2.114-1.91-.2-3.217.503-4.322 1.309-.503.402-1.006.905-1.307 1.509-.704 1.107-1.005 2.415-1.005 3.723v.906c0 .201.1.503.1.503.503 2.314 3.518 7.95 9.952 8.252-2.614.503-9.148-.604-11.661-7.145-2.412 1.006-4.523 1.71-7.036 2.415-7.036 2.113-13.67 4.126-14.274 11.07 0 .042 0 .066-.007.088-.011.03-.035.054-.093.112-.804 1.309-1.407 2.717-1.709 4.227a14.697 14.697 0 000 5.132c0 .1 0 .1.101.1l.1.101.101.1h.402c.1 0 .201-.1.201-.2.1-.202.1-.302.1-.504-.201-1.51 0-2.817.302-4.327v-.1c.082-.492.231-.85.392-1.24v-.001c.037-.087.074-.176.11-.269 0-.05.026-.075.051-.1.025-.026.05-.05.05-.101a12.932 12.932 0 002.111 5.333c.402.705.804 1.409 1.106 2.113.301.705.603 2.114.201 3.623-.603 2.013-.704 3.623-.704 4.226.029.115.049.335.075.617.066.71.168 1.811.528 2.604zm39.805-40.956c.044-.018.088-.038.132-.058a1.4 1.4 0 00-.132.058zm-40.911 33.91c-.904 2.416-.301 5.535.101 6.843-.704-.1-1.407-.201-2.01-.402-1.207-.403-2.011-1.107-1.508-2.214.301-1.208 1.91-4.327 3.92-7.648.1.705.1 1.912-.503 3.421zm31.764-13.987c-.301.402-.603.805-1.005 1.208-.429.43-1.005 1.153-1.665 1.981l-.345.434c-1.904 2.507-2.21 5.415-2.411 7.327l-.002.019c1.307 1.81 2.111 3.42 2.312 4.326.021.064.042.122.062.178.076.213.139.389.139.628v.805c-.05.15-.075.276-.1.402-.026.126-.051.252-.101.403-.1.402-.201.905-.1 1.308.1.503.402.905.703 1.207.603.705 1.407 1.208 2.212 1.41 1.005.402 2.11.502 3.216.502.704 0 1.407-.1 2.01-.503.302-.201.503-.402.604-.704.1-.302.1-.604.1-.906v-.1a8.39 8.39 0 01-.301-2.214c0-.604 0-1.309.1-1.912.201-1.107.101-2.415-.201-3.522-.402-1.308-1.005-2.516-1.809-3.522-.363-.636-.807-1.19-1.186-1.66l-.121-.152-.302-.302-.107-.141c-1.836-2.417-2.688-3.538-1.702-6.5zM253.586 9.68c-.201.1-.302.302-.201.503 0 .201.201.302.502.201l1.609-.604c.201-.1.301-.302.201-.503-.101-.201-.302-.302-.503-.201l-1.608.604zm-1.307 2.817c0-.201.101-.402.302-.402l2.613-.403c.201 0 .402.1.402.302 0 .201-.1.402-.301.402l-2.614.403c-.1 0-.301-.1-.402-.302z" fill="#333945"/></svg>