<svg width="576" height="333" fill="none" xmlns="http://www.w3.org/2000/svg"><path opacity=".12" fill-rule="evenodd" clip-rule="evenodd" d="M61.199 72.602c37.898-29.167 99.698-31.622 153.343-44.619C261.623 16.576 306.233-3.934 355.334 1.34c49.855 5.355 87.856 30.645 123.381 55.019 36.806 25.252 71.188 52.53 83.938 87.223 14.011 38.123 22.592 82.292-9.539 115.209-31.656 32.43-97.15 35.406-150.559 48.804-47.859 12.006-93.628 25.404-144.423 25.192-60.245-.251-124.799-.876-171.629-26.51C36.582 278.95 5.972 235.989 1.225 192.156c-4.646-42.907 17.963-87.221 59.974-119.553z" fill="url(#paint0_linear_4204_39079)"/><defs><linearGradient id="paint0_linear_4204_39079" x1="-2" y1="5.555" x2="291.962" y2="498.208" gradientUnits="userSpaceOnUse"><stop stop-color="#A0CA3F"/><stop offset="1" stop-color="#7B9C30"/></linearGradient></defs></svg>